<?xml version="1.0" encoding="UTF-8"?>
<!DOCTYPE svg PUBLIC "-//W3C//DTD SVG 1.1//EN" "http://www.w3.org/Graphics/SVG/1.1/DTD/svg11.dtd">
<svg xmlns="http://www.w3.org/2000/svg" version="1.1" width="5900px" height="5900px" style="shape-rendering:geometricPrecision; text-rendering:geometricPrecision; image-rendering:optimizeQuality; fill-rule:evenodd; clip-rule:evenodd" xmlns:xlink="http://www.w3.org/1999/xlink">
<g><path style="opacity:0.998" fill="#e73c2e" d="M 1467.5,2422.5 C 1164.17,2186.17 860.833,1949.83 557.5,1713.5C 696.115,1436.19 876.449,1189.02 1098.5,972C 1350.05,728.255 1637.72,538.255 1961.5,402C 2334.74,249.426 2723.07,181.426 3126.5,198C 3428.23,209.81 3719.56,270.477 4000.5,380C 4312.92,505.329 4591.09,682.829 4835,912.5C 4835.67,913.5 4835.67,914.5 4835,915.5C 4575.36,1176.48 4315.52,1437.64 4055.5,1699C 4054.09,1699.32 4052.76,1698.98 4051.5,1698C 3801.33,1460.64 3503.33,1325.97 3157.5,1294C 2772.87,1261.56 2421.87,1353.56 2104.5,1570C 1826.73,1766.31 1624.56,2022.48 1498,2338.5C 1487.73,2366.49 1477.56,2394.49 1467.5,2422.5 Z"/></g>
<g><path style="opacity:0.999" fill="#f8b504" d="M 557.5,1713.5 C 860.833,1949.83 1164.17,2186.17 1467.5,2422.5C 1361.75,2746.86 1354.25,3073.52 1445,3402.5C 1452.2,3427.27 1459.7,3451.94 1467.5,3476.5C 1164.19,3712.81 860.852,3949.14 557.5,4185.5C 387.829,3846.48 291.995,3486.81 270,3106.5C 245.688,2660.09 323.688,2232.76 504,1824.5C 520.791,1786.92 538.624,1749.92 557.5,1713.5 Z"/></g>
<g><path style="opacity:0.998" fill="#3c7ff2" d="M 4818.5,5037.5 C 4536.38,4817.88 4254.38,4598.05 3972.5,4378C 3960.25,4368.39 3948.25,4358.55 3936.5,4348.5C 4062.38,4262.46 4170.55,4157.79 4261,4034.5C 4372.7,3877.88 4446.2,3704.38 4481.5,3514C 3988.83,3513.5 3496.17,3513.33 3003.5,3513.5C 3003.5,3159.5 3003.5,2805.5 3003.5,2451.5C 3864.5,2451.5 4725.5,2451.5 5586.5,2451.5C 5639.13,2767.98 5647.3,3085.65 5611,3404.5C 5579.35,3678.71 5510.68,3942.71 5405,4196.5C 5288.92,4470.51 5129.59,4715.51 4927,4931.5C 4892.24,4968.43 4856.07,5003.76 4818.5,5037.5 Z"/></g>
<g><path style="opacity:0.999" fill="#2ea24b" d="M 1467.5,3476.5 C 1583.71,3815.8 1785.38,4092.3 2072.5,4306C 2383.43,4529.38 2731.09,4630.38 3115.5,4609C 3285.58,4600.47 3450.91,4568.14 3611.5,4512C 3726.68,4470.08 3835.01,4415.58 3936.5,4348.5C 3948.25,4358.55 3960.25,4368.39 3972.5,4378C 4254.38,4598.05 4536.38,4817.88 4818.5,5037.5C 4721.62,5127.91 4617.96,5209.41 4507.5,5282C 4272.18,5434.05 4018.18,5544.72 3745.5,5614C 3536.01,5665.93 3323.34,5695.26 3107.5,5702C 2620.37,5718.26 2161.37,5613.59 1730.5,5388C 1310.84,5162.7 970.344,4850.53 709,4451.5C 653.628,4365.77 603.128,4277.11 557.5,4185.5C 860.852,3949.14 1164.19,3712.81 1467.5,3476.5 Z"/></g>
</svg>
