<?xml version="1.0" encoding="UTF-8"?>
<!DOCTYPE svg PUBLIC "-//W3C//DTD SVG 1.1//EN" "http://www.w3.org/Graphics/SVG/1.1/DTD/svg11.dtd">
<svg xmlns="http://www.w3.org/2000/svg" version="1.1" width="445px" height="449px" style="shape-rendering:geometricPrecision; text-rendering:geometricPrecision; image-rendering:optimizeQuality; fill-rule:evenodd; clip-rule:evenodd" xmlns:xlink="http://www.w3.org/1999/xlink">
<g><path style="opacity:0.176" fill="#d6dee6" d="M 279.5,25.5 C 278.167,25.5 276.833,25.5 275.5,25.5C 268.175,24.1692 260.841,22.8359 253.5,21.5C 248.71,20.2751 243.71,19.6084 238.5,19.5C 237.5,19.5 236.5,19.5 235.5,19.5C 231.18,18.8342 226.68,18.5009 222,18.5C 214.282,18.3893 206.782,19.0559 199.5,20.5C 193.497,20.3325 187.83,21.3325 182.5,23.5C 181.5,23.5 180.5,23.5 179.5,23.5C 176.848,23.4095 174.515,24.0762 172.5,25.5C 166.692,26.9948 161.025,28.6615 155.5,30.5C 153.883,31.038 152.216,31.3713 150.5,31.5C 149.5,31.5 148.5,31.5 147.5,31.5C 180.781,17.9303 215.448,13.4303 251.5,18C 261.169,19.5825 270.503,22.0825 279.5,25.5 Z"/></g>
<g><path style="opacity:0.616" fill="#8d9ebb" d="M 235.5,19.5 C 223.487,19.4606 211.487,19.7939 199.5,20.5C 206.782,19.0559 214.282,18.3893 222,18.5C 226.68,18.5009 231.18,18.8342 235.5,19.5 Z"/></g>
<g><path style="opacity:0.988" fill="#465f93" d="M 235.5,19.5 C 236.5,19.5 237.5,19.5 238.5,19.5C 243.217,21.2377 248.217,21.9044 253.5,21.5C 260.841,22.8359 268.175,24.1692 275.5,25.5C 276.5,26.1667 277.5,26.8333 278.5,27.5C 265.499,26.5316 252.499,24.6983 239.5,22C 226.833,21.3333 214.167,21.3333 201.5,22C 193.254,23.8244 184.92,24.9911 176.5,25.5C 177.5,24.8333 178.5,24.1667 179.5,23.5C 180.5,23.5 181.5,23.5 182.5,23.5C 188.374,22.9508 194.041,21.9508 199.5,20.5C 211.487,19.7939 223.487,19.4606 235.5,19.5 Z"/></g>
<g><path style="opacity:0.898" fill="#6a7da1" d="M 238.5,19.5 C 243.71,19.6084 248.71,20.2751 253.5,21.5C 248.217,21.9044 243.217,21.2377 238.5,19.5 Z"/></g>
<g><path style="opacity:1" fill="#3b5999" d="M 278.5,27.5 C 278.833,27.5 279.167,27.5 279.5,27.5C 279.62,28.5862 280.287,29.2528 281.5,29.5C 285.792,30.8211 290.125,31.8211 294.5,32.5C 318.19,40.8393 339.19,53.5059 357.5,70.5C 360.726,74.7336 364.392,78.7336 368.5,82.5C 369.417,83.1272 370.417,83.4606 371.5,83.5C 371.238,84.9778 371.571,86.3112 372.5,87.5C 374.36,88.2599 376.027,89.2599 377.5,90.5C 379.164,96.1832 382.498,100.517 387.5,103.5C 389.987,105.809 391.987,108.476 393.5,111.5C 393.241,113.989 394.241,115.656 396.5,116.5C 397.567,121.468 399.234,126.135 401.5,130.5C 402.5,130.5 403.5,130.5 404.5,130.5C 406.734,133.399 408.067,136.732 408.5,140.5C 408.252,146.604 410.252,151.604 414.5,155.5C 413.909,159.964 415.242,163.631 418.5,166.5C 418.5,166.833 418.5,167.167 418.5,167.5C 419.036,172.864 419.703,178.197 420.5,183.5C 421.21,190.65 422.377,197.65 424,204.5C 424.809,219.528 424.475,234.528 423,249.5C 420.597,259.007 418.597,268.674 417,278.5C 411.998,289.508 407.831,300.841 404.5,312.5C 402.665,313.122 401.498,314.456 401,316.5C 400.56,318.866 400.06,321.199 399.5,323.5C 398.094,323.973 397.427,324.973 397.5,326.5C 396.504,326.414 395.671,326.748 395,327.5C 392.547,330.425 391.047,333.758 390.5,337.5C 386.965,340.188 383.632,343.188 380.5,346.5C 379.548,348.045 379.215,349.712 379.5,351.5C 378.079,354.009 376.412,356.343 374.5,358.5C 372.5,360.167 370.5,361.833 368.5,363.5C 367.325,363.281 366.325,363.614 365.5,364.5C 355.469,374.193 344.802,383.193 333.5,391.5C 322.981,396.745 312.981,402.412 303.5,408.5C 300.834,408.933 298.168,409.433 295.5,410C 291.692,411.964 288.026,413.797 284.5,415.5C 284.167,415.5 283.833,415.5 283.5,415.5C 271.237,417.355 259.237,419.688 247.5,422.5C 246.5,422.5 245.5,422.5 244.5,422.5C 212.283,425.132 180.95,421.299 150.5,411C 146.936,407.519 142.603,406.019 137.5,406.5C 132.947,405.438 128.947,403.438 125.5,400.5C 124.191,397.549 121.857,396.216 118.5,396.5C 116.635,392.738 113.635,390.738 109.5,390.5C 108.79,386.639 106.457,384.973 102.5,385.5C 101.415,383.413 99.7488,382.08 97.5,381.5C 96.4154,379.413 94.7488,378.08 92.5,377.5C 91.4154,375.413 89.7488,374.08 87.5,373.5C 86.5,373.167 85.8333,372.5 85.5,371.5C 85.5,370.167 85.5,368.833 85.5,367.5C 78.7065,363.387 73.2065,357.72 69,350.5C 66.1482,348.049 63.3149,345.715 60.5,343.5C 60.1062,339.609 58.2729,336.609 55,334.5C 53.6607,331.497 52.3274,328.497 51,325.5C 50.1841,324.177 49.0174,323.511 47.5,323.5C 45.3256,320.485 43.6589,317.151 42.5,313.5C 39.5183,304.219 36.0183,295.219 32,286.5C 28.0183,272.925 25.185,259.092 23.5,245C 22.5122,233.176 22.3455,221.343 23,209.5C 24.5481,197.308 25.7148,184.975 26.5,172.5C 26.5,172.167 26.5,171.833 26.5,171.5C 27.9238,169.485 28.5905,167.152 28.5,164.5C 30.871,159.735 32.871,154.735 34.5,149.5C 36.479,146.692 38.3124,143.692 40,140.5C 40.4955,138.527 40.6621,136.527 40.5,134.5C 43.9639,132.127 45.6306,128.794 45.5,124.5C 47.4077,123.514 48.4077,121.848 48.5,119.5C 48.7497,117.326 49.7497,115.659 51.5,114.5C 54.0838,113.952 55.0838,112.285 54.5,109.5C 56.8218,108.198 58.1551,106.198 58.5,103.5C 59.604,101.611 60.9373,99.9448 62.5,98.5C 64.5869,97.4154 65.9202,95.7488 66.5,93.5C 69.2427,91.7607 71.2427,89.4274 72.5,86.5C 73.5,84.8333 74.8333,83.5 76.5,82.5C 78.8333,80.8333 80.8333,78.8333 82.5,76.5C 83.5832,76.4606 84.5832,76.1272 85.5,75.5C 89.9155,70.4178 94.5822,65.7511 99.5,61.5C 100.583,61.5394 101.583,61.8728 102.5,62.5C 108.471,58.5271 113.804,53.8604 118.5,48.5C 120.336,46.412 122.669,45.0787 125.5,44.5C 127.848,44.4077 129.514,43.4077 130.5,41.5C 133.95,39.3908 137.616,37.7241 141.5,36.5C 146.858,35.8344 151.525,33.8344 155.5,30.5C 161.675,30.2072 167.342,28.5405 172.5,25.5C 173.833,25.5 175.167,25.5 176.5,25.5C 184.92,24.9911 193.254,23.8244 201.5,22C 214.167,21.3333 226.833,21.3333 239.5,22C 252.499,24.6983 265.499,26.5316 278.5,27.5 Z"/></g>
<g><path style="opacity:0.882" fill="#7587a9" d="M 199.5,20.5 C 194.041,21.9508 188.374,22.9508 182.5,23.5C 187.83,21.3325 193.497,20.3325 199.5,20.5 Z"/></g>
<g><path style="opacity:0.871" fill="#8191b0" d="M 179.5,23.5 C 178.5,24.1667 177.5,24.8333 176.5,25.5C 175.167,25.5 173.833,25.5 172.5,25.5C 174.515,24.0762 176.848,23.4095 179.5,23.5 Z"/></g>
<g><path style="opacity:0.255" fill="#e6f0f8" d="M 279.5,25.5 C 282.152,25.4095 284.485,26.0762 286.5,27.5C 283.848,27.5905 281.515,26.9238 279.5,25.5 Z"/></g>
<g><path style="opacity:0.89" fill="#7284a7" d="M 172.5,25.5 C 167.342,28.5405 161.675,30.2072 155.5,30.5C 161.025,28.6615 166.692,26.9948 172.5,25.5 Z"/></g>
<g><path style="opacity:0.986" fill="#4d6391" d="M 279.5,27.5 C 284.757,28.7227 289.757,30.3894 294.5,32.5C 290.125,31.8211 285.792,30.8211 281.5,29.5C 280.287,29.2528 279.62,28.5862 279.5,27.5 Z"/></g>
<g><path style="opacity:0.139" fill="#c2cad6" d="M 147.5,31.5 C 148.5,31.5 149.5,31.5 150.5,31.5C 147.628,33.3507 144.628,35.0173 141.5,36.5C 137.616,37.7241 133.95,39.3908 130.5,41.5C 128.326,41.7497 126.659,42.7497 125.5,44.5C 122.669,45.0787 120.336,46.412 118.5,48.5C 112.582,51.7465 106.915,55.4132 101.5,59.5C 101.5,58.8333 101.5,58.1667 101.5,57.5C 115.299,46.263 130.633,37.5964 147.5,31.5 Z"/></g>
<g><path style="opacity:0.961" fill="#60739b" d="M 155.5,30.5 C 151.525,33.8344 146.858,35.8344 141.5,36.5C 144.628,35.0173 147.628,33.3507 150.5,31.5C 152.216,31.3713 153.883,31.038 155.5,30.5 Z"/></g>
<g><path style="opacity:0.984" fill="#657aa1" d="M 130.5,41.5 C 129.514,43.4077 127.848,44.4077 125.5,44.5C 126.659,42.7497 128.326,41.7497 130.5,41.5 Z"/></g>
<g><path style="opacity:0.102" fill="#bfc9d7" d="M 275.5,25.5 C 276.833,25.5 278.167,25.5 279.5,25.5C 281.515,26.9238 283.848,27.5905 286.5,27.5C 301.066,31.1132 314.732,36.9465 327.5,45C 340.87,52.8335 353.203,62.0002 364.5,72.5C 363.508,72.3284 362.842,72.6618 362.5,73.5C 360.668,72.7515 359.001,71.7515 357.5,70.5C 339.19,53.5059 318.19,40.8393 294.5,32.5C 289.757,30.3894 284.757,28.7227 279.5,27.5C 279.167,27.5 278.833,27.5 278.5,27.5C 277.5,26.8333 276.5,26.1667 275.5,25.5 Z"/></g>
<g><path style="opacity:1" fill="#4b6194" d="M 118.5,48.5 C 113.804,53.8604 108.471,58.5271 102.5,62.5C 101.583,61.8728 100.583,61.5394 99.5,61.5C 99.8333,60.5 100.5,59.8333 101.5,59.5C 106.915,55.4132 112.582,51.7465 118.5,48.5 Z"/></g>
<g><path style="opacity:0.251" fill="#cfd7e0" d="M 101.5,57.5 C 101.5,58.1667 101.5,58.8333 101.5,59.5C 100.5,59.8333 99.8333,60.5 99.5,61.5C 92.9375,65.3904 87.2708,70.3904 82.5,76.5C 79.5,77.5 77.5,79.5 76.5,82.5C 74.8333,83.5 73.5,84.8333 72.5,86.5C 69.7573,88.2393 67.7573,90.5726 66.5,93.5C 64.4131,94.5846 63.0798,96.2512 62.5,98.5C 60.9373,99.9448 59.604,101.611 58.5,103.5C 56.6736,105.147 55.3403,107.147 54.5,109.5C 52.7497,110.659 51.7497,112.326 51.5,114.5C 49.7497,115.659 48.7497,117.326 48.5,119.5C 46.7497,120.659 45.7497,122.326 45.5,124.5C 42.7989,127.235 41.1322,130.569 40.5,134.5C 37.743,138.416 35.743,142.75 34.5,147.5C 31.6907,152.805 29.6907,158.472 28.5,164.5C 27.0762,166.515 26.4095,168.848 26.5,171.5C 26.5,171.833 26.5,172.167 26.5,172.5C 24.2148,178.514 22.8815,184.848 22.5,191.5C 21.3833,195.295 20.7167,199.295 20.5,203.5C 19.8333,201.167 19.1667,198.833 18.5,196.5C 27.0941,140.785 53.0941,95.2845 96.5,60C 98.0779,58.9055 99.7446,58.0722 101.5,57.5 Z"/></g>
<g><path style="opacity:0.953" fill="#60739b" d="M 99.5,61.5 C 94.5822,65.7511 89.9155,70.4178 85.5,75.5C 84.5832,76.1272 83.5832,76.4606 82.5,76.5C 87.2708,70.3904 92.9375,65.3904 99.5,61.5 Z"/></g>
<g><path style="opacity:0.988" fill="#566a96" d="M 357.5,70.5 C 359.001,71.7515 360.668,72.7515 362.5,73.5C 365.5,76.8333 368.5,80.1667 371.5,83.5C 370.417,83.4606 369.417,83.1272 368.5,82.5C 364.392,78.7336 360.726,74.7336 357.5,70.5 Z"/></g>
<g><path style="opacity:0.961" fill="#7586a8" d="M 82.5,76.5 C 80.8333,78.8333 78.8333,80.8333 76.5,82.5C 77.5,79.5 79.5,77.5 82.5,76.5 Z"/></g>
<g><path style="opacity:1" fill="#4e6495" d="M 289.5,81.5 C 271.167,81.5 252.833,81.5 234.5,81.5C 229.699,81.3498 225.033,82.0165 220.5,83.5C 222.535,82.0601 224.702,80.7268 227,79.5C 237.668,79.8666 248.502,79.8666 259.5,79.5C 269.856,79.5014 279.856,80.1681 289.5,81.5 Z"/></g>
<g><path style="opacity:1" fill="#8293b5" d="M 234.5,81.5 C 234.5,81.8333 234.5,82.1667 234.5,82.5C 229.729,82.5376 225.062,83.2043 220.5,84.5C 220.5,84.1667 220.5,83.8333 220.5,83.5C 225.033,82.0165 229.699,81.3498 234.5,81.5 Z"/></g>
<g><path style="opacity:1" fill="#fdfefe" d="M 234.5,82.5 C 252.5,82.5 270.5,82.5 288.5,82.5C 288.5,98.1667 288.5,113.833 288.5,129.5C 277.986,129.172 267.653,129.506 257.5,130.5C 254.454,130.725 252.121,132.058 250.5,134.5C 249.167,134.5 248.5,135.167 248.5,136.5C 247.883,136.611 247.383,136.944 247,137.5C 246.5,149.162 246.333,160.829 246.5,172.5C 260.323,173.496 274.323,173.829 288.5,173.5C 288.5,176.167 288.5,178.833 288.5,181.5C 287.966,192.842 287.299,204.175 286.5,215.5C 285.566,216.568 285.232,217.901 285.5,219.5C 272.656,219.171 259.989,219.505 247.5,220.5C 246.501,267.664 246.168,314.997 246.5,362.5C 227.5,362.5 208.5,362.5 189.5,362.5C 189.832,315.33 189.499,268.33 188.5,221.5C 178.681,220.506 168.681,220.173 158.5,220.5C 158.5,204.833 158.5,189.167 158.5,173.5C 168.681,173.827 178.681,173.494 188.5,172.5C 189.332,155.005 189.832,137.338 190,119.5C 191.469,116.037 192.303,112.37 192.5,108.5C 193.441,106.95 194.107,105.284 194.5,103.5C 195.167,102.833 195.833,102.167 196.5,101.5C 198.5,100.167 200.167,98.5 201.5,96.5C 201.833,95.5 202.5,94.8333 203.5,94.5C 205.749,93.9202 207.415,92.5869 208.5,90.5C 208.973,89.0937 209.973,88.427 211.5,88.5C 213.027,88.573 214.027,87.9063 214.5,86.5C 216.5,85.8333 218.5,85.1667 220.5,84.5C 225.062,83.2043 229.729,82.5376 234.5,82.5 Z"/></g>
<g><path style="opacity:0.133" fill="#dfe7f0" d="M 364.5,72.5 C 369.463,79.1305 375.13,85.1305 381.5,90.5C 380.833,90.8333 380.167,91.1667 379.5,91.5C 378.833,91.1667 378.167,90.8333 377.5,90.5C 376.243,87.5726 374.243,85.2393 371.5,83.5C 368.5,80.1667 365.5,76.8333 362.5,73.5C 362.842,72.6618 363.508,72.3284 364.5,72.5 Z"/></g>
<g><path style="opacity:1" fill="#8e9fbe" d="M 214.5,86.5 C 214.027,87.9063 213.027,88.573 211.5,88.5C 211.973,87.0937 212.973,86.427 214.5,86.5 Z"/></g>
<g><path style="opacity:0.988" fill="#5e729d" d="M 371.5,83.5 C 374.243,85.2393 376.243,87.5726 377.5,90.5C 376.027,89.2599 374.36,88.2599 372.5,87.5C 371.571,86.3112 371.238,84.9778 371.5,83.5 Z"/></g>
<g><path style="opacity:0.953" fill="#6f82a5" d="M 72.5,86.5 C 71.2427,89.4274 69.2427,91.7607 66.5,93.5C 67.7573,90.5726 69.7573,88.2393 72.5,86.5 Z"/></g>
<g><path style="opacity:1" fill="#cfd9e9" d="M 208.5,90.5 C 207.415,92.5869 205.749,93.9202 203.5,94.5C 204.585,92.4131 206.251,91.0798 208.5,90.5 Z"/></g>
<g><path style="opacity:0.945" fill="#7486a8" d="M 66.5,93.5 C 65.9202,95.7488 64.5869,97.4154 62.5,98.5C 63.0798,96.2512 64.4131,94.5846 66.5,93.5 Z"/></g>
<g><path style="opacity:0.992" fill="#536896" d="M 377.5,90.5 C 378.167,90.8333 378.833,91.1667 379.5,91.5C 382.559,95.228 385.226,99.228 387.5,103.5C 382.498,100.517 379.164,96.1832 377.5,90.5 Z"/></g>
<g><path style="opacity:1" fill="#aab8cf" d="M 201.5,96.5 C 200.167,98.5 198.5,100.167 196.5,101.5C 197.167,98.8333 198.833,97.1667 201.5,96.5 Z"/></g>
<g><path style="opacity:1" fill="#becada" d="M 234.5,82.5 C 234.5,82.1667 234.5,81.8333 234.5,81.5C 252.833,81.5 271.167,81.5 289.5,81.5C 289.83,98.0085 289.496,114.342 288.5,130.5C 278.167,130.5 267.833,130.5 257.5,130.5C 267.653,129.506 277.986,129.172 288.5,129.5C 288.5,113.833 288.5,98.1667 288.5,82.5C 270.5,82.5 252.5,82.5 234.5,82.5 Z"/></g>
<g><path style="opacity:0.192" fill="#d3dce6" d="M 381.5,90.5 C 391.012,102.692 399.345,115.692 406.5,129.5C 406.591,131.698 405.925,132.031 404.5,130.5C 402.841,125.173 400.174,120.507 396.5,116.5C 395.89,114.566 394.89,112.899 393.5,111.5C 391.987,108.476 389.987,105.809 387.5,103.5C 385.226,99.228 382.559,95.228 379.5,91.5C 380.167,91.1667 380.833,90.8333 381.5,90.5 Z"/></g>
<g><path style="opacity:1" fill="#6577a0" d="M 194.5,103.5 C 194.107,105.284 193.441,106.95 192.5,108.5C 192.167,108.5 191.833,108.5 191.5,108.5C 191.241,106.011 192.241,104.344 194.5,103.5 Z"/></g>
<g><path style="opacity:0.812" fill="#7486a7" d="M 58.5,103.5 C 58.1551,106.198 56.8218,108.198 54.5,109.5C 55.3403,107.147 56.6736,105.147 58.5,103.5 Z"/></g>
<g><path style="opacity:0.988" fill="#5a6f98" d="M 54.5,109.5 C 55.0838,112.285 54.0838,113.952 51.5,114.5C 51.7497,112.326 52.7497,110.659 54.5,109.5 Z"/></g>
<g><path style="opacity:0.886" fill="#687ba3" d="M 393.5,111.5 C 394.89,112.899 395.89,114.566 396.5,116.5C 394.241,115.656 393.241,113.989 393.5,111.5 Z"/></g>
<g><path style="opacity:0.988" fill="#5d709a" d="M 48.5,119.5 C 48.4077,121.848 47.4077,123.514 45.5,124.5C 45.7497,122.326 46.7497,120.659 48.5,119.5 Z"/></g>
<g><path style="opacity:1" fill="#596d9b" d="M 396.5,116.5 C 400.174,120.507 402.841,125.173 404.5,130.5C 403.5,130.5 402.5,130.5 401.5,130.5C 399.234,126.135 397.567,121.468 396.5,116.5 Z"/></g>
<g><path style="opacity:1" fill="#526893" d="M 191.5,108.5 C 189.864,113.348 188.864,118.348 188.5,123.5C 187.833,139.5 187.167,155.5 186.5,171.5C 186.5,155.167 186.5,138.833 186.5,122.5C 187.166,119.311 187.833,115.977 188.5,112.5C 189.15,110.816 190.15,109.483 191.5,108.5 Z"/></g>
<g><path style="opacity:1" fill="#e7f0f9" d="M 191.5,108.5 C 191.833,108.5 192.167,108.5 192.5,108.5C 192.303,112.37 191.469,116.037 190,119.5C 189.832,137.338 189.332,155.005 188.5,172.5C 188.5,156.167 188.5,139.833 188.5,123.5C 188.864,118.348 189.864,113.348 191.5,108.5 Z"/></g>
<g><path style="opacity:1" fill="#546891" d="M 257.5,130.5 C 267.833,130.5 278.167,130.5 288.5,130.5C 277.833,131.167 267.167,131.833 256.5,132.5C 255.005,132.989 253.671,133.655 252.5,134.5C 251.833,134.5 251.167,134.5 250.5,134.5C 252.121,132.058 254.454,130.725 257.5,130.5 Z"/></g>
<g><path style="opacity:1" fill="#476094" d="M 289.5,81.5 C 290.15,81.8039 290.817,82.1373 291.5,82.5C 292.79,99.1882 292.79,115.855 291.5,132.5C 279.833,132.5 268.167,132.5 256.5,132.5C 267.167,131.833 277.833,131.167 288.5,130.5C 289.496,114.342 289.83,98.0085 289.5,81.5 Z"/></g>
<g><path style="opacity:0.965" fill="#596e97" d="M 45.5,124.5 C 45.6306,128.794 43.9639,132.127 40.5,134.5C 41.1322,130.569 42.7989,127.235 45.5,124.5 Z"/></g>
<g><path style="opacity:0.996" fill="#4d6493" d="M 40.5,134.5 C 40.6621,136.527 40.4955,138.527 40,140.5C 38.3124,143.692 36.479,146.692 34.5,149.5C 34.5,148.833 34.5,148.167 34.5,147.5C 35.743,142.75 37.743,138.416 40.5,134.5 Z"/></g>
<g><path style="opacity:0.345" fill="#bec7d2" d="M 406.5,129.5 C 411.905,139.655 416.238,150.322 419.5,161.5C 418.833,161.167 418.167,160.833 417.5,160.5C 416.935,158.58 415.935,156.913 414.5,155.5C 414.162,153.146 413.662,150.813 413,148.5C 412.084,145.443 410.584,142.776 408.5,140.5C 408.067,136.732 406.734,133.399 404.5,130.5C 405.925,132.031 406.591,131.698 406.5,129.5 Z"/></g>
<g><path style="opacity:0.961" fill="#7385aa" d="M 34.5,147.5 C 34.5,148.167 34.5,148.833 34.5,149.5C 32.871,154.735 30.871,159.735 28.5,164.5C 29.6907,158.472 31.6907,152.805 34.5,147.5 Z"/></g>
<g><path style="opacity:1" fill="#495f93" d="M 408.5,140.5 C 410.584,142.776 412.084,145.443 413,148.5C 413.662,150.813 414.162,153.146 414.5,155.5C 410.252,151.604 408.252,146.604 408.5,140.5 Z"/></g>
<g><path style="opacity:0.994" fill="#596e99" d="M 414.5,155.5 C 415.935,156.913 416.935,158.58 417.5,160.5C 418.15,162.435 418.483,164.435 418.5,166.5C 415.242,163.631 413.909,159.964 414.5,155.5 Z"/></g>
<g><path style="opacity:0.886" fill="#7b8cab" d="M 28.5,164.5 C 28.5905,167.152 27.9238,169.485 26.5,171.5C 26.4095,168.848 27.0762,166.515 28.5,164.5 Z"/></g>
<g><path style="opacity:1" fill="#40598e" d="M 186.5,122.5 C 186.5,138.833 186.5,155.167 186.5,171.5C 176.5,171.5 166.5,171.5 156.5,171.5C 156.811,170.522 157.478,169.855 158.5,169.5C 167.446,170.472 176.446,170.806 185.5,170.5C 185.17,154.325 185.504,138.325 186.5,122.5 Z"/></g>
<g><path style="opacity:1" fill="#496092" d="M 250.5,134.5 C 251.167,134.5 251.833,134.5 252.5,134.5C 251.088,136.998 249.921,139.664 249,142.5C 248.5,151.827 248.334,161.161 248.5,170.5C 262.833,170.5 277.167,170.5 291.5,170.5C 291.511,172.547 291.844,174.547 292.5,176.5C 289.685,191.704 287.852,207.037 287,222.5C 274.246,223.489 261.413,223.822 248.5,223.5C 260.967,221.84 273.634,220.84 286.5,220.5C 286.5,218.833 286.5,217.167 286.5,215.5C 287.299,204.175 287.966,192.842 288.5,181.5C 289.477,178.713 289.81,175.713 289.5,172.5C 275.677,171.504 261.677,171.171 247.5,171.5C 247.209,159.783 247.542,148.116 248.5,136.5C 248.5,135.167 249.167,134.5 250.5,134.5 Z"/></g>
<g><path style="opacity:1" fill="#8a9ab9" d="M 188.5,123.5 C 188.5,139.833 188.5,156.167 188.5,172.5C 178.167,172.5 167.833,172.5 157.5,172.5C 157.5,188.833 157.5,205.167 157.5,221.5C 157.167,221.5 156.833,221.5 156.5,221.5C 156.5,204.833 156.5,188.167 156.5,171.5C 166.5,171.5 176.5,171.5 186.5,171.5C 187.167,155.5 187.833,139.5 188.5,123.5 Z"/></g>
<g><path style="opacity:1" fill="#7b8cb0" d="M 248.5,136.5 C 247.542,148.116 247.209,159.783 247.5,171.5C 261.677,171.171 275.677,171.504 289.5,172.5C 275.167,172.5 260.833,172.5 246.5,172.5C 246.333,160.829 246.5,149.162 247,137.5C 247.383,136.944 247.883,136.611 248.5,136.5 Z"/></g>
<g><path style="opacity:1" fill="#d0dbe8" d="M 246.5,172.5 C 260.833,172.5 275.167,172.5 289.5,172.5C 289.81,175.713 289.477,178.713 288.5,181.5C 288.5,178.833 288.5,176.167 288.5,173.5C 274.323,173.829 260.323,173.496 246.5,172.5 Z"/></g>
<g><path style="opacity:1" fill="#e1e9f2" d="M 188.5,172.5 C 178.681,173.494 168.681,173.827 158.5,173.5C 158.5,189.167 158.5,204.833 158.5,220.5C 168.681,220.173 178.681,220.506 188.5,221.5C 178.167,221.5 167.833,221.5 157.5,221.5C 157.5,205.167 157.5,188.833 157.5,172.5C 167.833,172.5 178.167,172.5 188.5,172.5 Z"/></g>
<g><path style="opacity:0.987" fill="#526795" d="M 418.5,167.5 C 419.924,169.515 420.59,171.848 420.5,174.5C 420.41,177.152 421.076,179.485 422.5,181.5C 423.26,186.15 423.926,190.817 424.5,195.5C 423.167,191.5 421.833,187.5 420.5,183.5C 419.703,178.197 419.036,172.864 418.5,167.5 Z"/></g>
<g><path style="opacity:0.824" fill="#8597b6" d="M 420.5,174.5 C 421.924,176.515 422.59,178.848 422.5,181.5C 421.076,179.485 420.41,177.152 420.5,174.5 Z"/></g>
<g><path style="opacity:0.106" fill="#cfd9e3" d="M 417.5,160.5 C 418.167,160.833 418.833,161.167 419.5,161.5C 424.04,175.021 426.707,189.021 427.5,203.5C 427.768,205.099 427.434,206.432 426.5,207.5C 426.737,206.209 426.404,205.209 425.5,204.5C 425.296,201.482 424.963,198.482 424.5,195.5C 423.926,190.817 423.26,186.15 422.5,181.5C 422.59,178.848 421.924,176.515 420.5,174.5C 420.59,171.848 419.924,169.515 418.5,167.5C 418.5,167.167 418.5,166.833 418.5,166.5C 418.483,164.435 418.15,162.435 417.5,160.5 Z"/></g>
<g><path style="opacity:0.925" fill="#7a8bac" d="M 22.5,191.5 C 22.473,197.051 21.8063,202.384 20.5,207.5C 20.5,206.167 20.5,204.833 20.5,203.5C 20.7167,199.295 21.3833,195.295 22.5,191.5 Z"/></g>
<g><path style="opacity:0.686" fill="#aeb8cc" d="M 18.5,196.5 C 19.1667,198.833 19.8333,201.167 20.5,203.5C 20.5,204.833 20.5,206.167 20.5,207.5C 20.5,216.5 20.5,225.5 20.5,234.5C 19.8333,224.5 19.1667,214.5 18.5,204.5C 18.5,201.833 18.5,199.167 18.5,196.5 Z"/></g>
<g><path style="opacity:0.98" fill="#465e91" d="M 420.5,183.5 C 421.833,187.5 423.167,191.5 424.5,195.5C 424.963,198.482 425.296,201.482 425.5,204.5C 425.716,220.186 425.383,235.852 424.5,251.5C 422.859,257.648 421.526,263.982 420.5,270.5C 417.827,281.852 414.16,292.852 409.5,303.5C 407.755,305.033 406.755,307.033 406.5,309.5C 406.068,310.71 405.401,311.71 404.5,312.5C 407.831,300.841 411.998,289.508 417,278.5C 418.597,268.674 420.597,259.007 423,249.5C 424.475,234.528 424.809,219.528 424,204.5C 422.377,197.65 421.21,190.65 420.5,183.5 Z"/></g>
<g><path style="opacity:0.129" fill="#bac0c8" d="M 427.5,203.5 C 428.833,215.833 428.833,228.167 427.5,240.5C 427.81,237.287 427.477,234.287 426.5,231.5C 426.5,223.5 426.5,215.5 426.5,207.5C 427.434,206.432 427.768,205.099 427.5,203.5 Z"/></g>
<g><path style="opacity:1" fill="#d8e2ee" d="M 286.5,215.5 C 286.5,217.167 286.5,218.833 286.5,220.5C 273.5,220.5 260.5,220.5 247.5,220.5C 259.989,219.505 272.656,219.171 285.5,219.5C 285.232,217.901 285.566,216.568 286.5,215.5 Z"/></g>
<g><path style="opacity:0.38" fill="#dbe3eb" d="M 426.5,231.5 C 427.477,234.287 427.81,237.287 427.5,240.5C 427.044,248.902 426.044,257.236 424.5,265.5C 423.953,261.022 423.953,256.355 424.5,251.5C 426.201,245.081 426.867,238.415 426.5,231.5 Z"/></g>
<g><path style="opacity:0.455" fill="#95a5c1" d="M 425.5,204.5 C 426.404,205.209 426.737,206.209 426.5,207.5C 426.5,215.5 426.5,223.5 426.5,231.5C 426.867,238.415 426.201,245.081 424.5,251.5C 425.383,235.852 425.716,220.186 425.5,204.5 Z"/></g>
<g><path style="opacity:0.995" fill="#4b6294" d="M 26.5,172.5 C 25.7148,184.975 24.5481,197.308 23,209.5C 22.3455,221.343 22.5122,233.176 23.5,245C 25.185,259.092 28.0183,272.925 32,286.5C 36.0183,295.219 39.5183,304.219 42.5,313.5C 41.0688,312.097 39.9022,310.431 39,308.5C 35.9791,301.777 33.1458,294.944 30.5,288C 28.6643,281.51 26.9977,275.01 25.5,268.5C 25.7062,265.505 25.0395,262.838 23.5,260.5C 22.1223,251.88 21.1223,243.214 20.5,234.5C 20.5,225.5 20.5,216.5 20.5,207.5C 21.8063,202.384 22.473,197.051 22.5,191.5C 22.8815,184.848 24.2148,178.514 26.5,172.5 Z"/></g>
<g><path style="opacity:1" fill="#bac6db" d="M 247.5,220.5 C 247.5,268.167 247.5,315.833 247.5,363.5C 227.833,363.5 208.167,363.5 188.5,363.5C 188.5,316.167 188.5,268.833 188.5,221.5C 189.499,268.33 189.832,315.33 189.5,362.5C 208.5,362.5 227.5,362.5 246.5,362.5C 246.168,314.997 246.501,267.664 247.5,220.5 Z"/></g>
<g><path style="opacity:1" fill="#7486ad" d="M 247.5,220.5 C 260.5,220.5 273.5,220.5 286.5,220.5C 273.634,220.84 260.967,221.84 248.5,223.5C 248.832,270.336 248.499,317.003 247.5,363.5C 247.5,315.833 247.5,268.167 247.5,220.5 Z"/></g>
<g><path style="opacity:0.282" fill="#afbbd0" d="M 424.5,251.5 C 423.953,256.355 423.953,261.022 424.5,265.5C 423.89,266.391 423.557,267.391 423.5,268.5C 422.222,268.782 421.222,269.449 420.5,270.5C 421.526,263.982 422.859,257.648 424.5,251.5 Z"/></g>
<g><path style="opacity:0.753" fill="#8495b3" d="M 23.5,260.5 C 25.0395,262.838 25.7062,265.505 25.5,268.5C 24.2318,266.095 23.5651,263.428 23.5,260.5 Z"/></g>
<g><path style="opacity:1" fill="#61749e" d="M 157.5,221.5 C 167.833,221.5 178.167,221.5 188.5,221.5C 188.5,268.833 188.5,316.167 188.5,363.5C 188.167,363.5 187.833,363.5 187.5,363.5C 187.5,316.5 187.5,269.5 187.5,222.5C 177.319,222.827 167.319,222.494 157.5,221.5 Z"/></g>
<g><path style="opacity:0.153" fill="#c2cad6" d="M 423.5,268.5 C 416.792,296.91 404.959,322.91 388,346.5C 384.718,350.759 381.218,354.759 377.5,358.5C 376.798,357.884 375.798,357.884 374.5,358.5C 376.412,356.343 378.079,354.009 379.5,351.5C 383.638,347.235 387.305,342.569 390.5,337.5C 393.069,334.039 395.403,330.372 397.5,326.5C 397.427,324.973 398.094,323.973 399.5,323.5C 401.081,321.326 402.581,318.993 404,316.5C 404.49,315.207 404.657,313.873 404.5,312.5C 405.401,311.71 406.068,310.71 406.5,309.5C 408.245,307.967 409.245,305.967 409.5,303.5C 414.16,292.852 417.827,281.852 420.5,270.5C 421.222,269.449 422.222,268.782 423.5,268.5 Z"/></g>
<g><path style="opacity:0.812" fill="#7385a6" d="M 409.5,303.5 C 409.245,305.967 408.245,307.967 406.5,309.5C 406.755,307.033 407.755,305.033 409.5,303.5 Z"/></g>
<g><path style="opacity:0.984" fill="#5f739e" d="M 404.5,312.5 C 404.657,313.873 404.49,315.207 404,316.5C 402.581,318.993 401.081,321.326 399.5,323.5C 400.06,321.199 400.56,318.866 401,316.5C 401.498,314.456 402.665,313.122 404.5,312.5 Z"/></g>
<g><path style="opacity:0.992" fill="#4f6593" d="M 47.5,323.5 C 49.0174,323.511 50.1841,324.177 51,325.5C 52.3274,328.497 53.6607,331.497 55,334.5C 58.2729,336.609 60.1062,339.609 60.5,343.5C 55.1844,337.552 50.8511,330.886 47.5,323.5 Z"/></g>
<g><path style="opacity:0.961" fill="#546895" d="M 397.5,326.5 C 395.403,330.372 393.069,334.039 390.5,337.5C 391.047,333.758 392.547,330.425 395,327.5C 395.671,326.748 396.504,326.414 397.5,326.5 Z"/></g>
<g><path style="opacity:1" fill="#3e5991" d="M 156.5,221.5 C 156.833,221.5 157.167,221.5 157.5,221.5C 167.319,222.494 177.319,222.827 187.5,222.5C 187.5,269.5 187.5,316.5 187.5,363.5C 186.305,363.134 185.639,362.301 185.5,361C 186.631,315.662 186.798,270.162 186,224.5C 175.858,224.176 166.025,223.176 156.5,221.5 Z"/></g>
<g><path style="opacity:0.976" fill="#4e6394" d="M 390.5,337.5 C 387.305,342.569 383.638,347.235 379.5,351.5C 379.215,349.712 379.548,348.045 380.5,346.5C 383.632,343.188 386.965,340.188 390.5,337.5 Z"/></g>
<g><path style="opacity:0.004" fill="#eff3f8" d="M 377.5,358.5 C 374.167,362.167 370.833,365.833 367.5,369.5C 367.389,368.883 367.056,368.383 366.5,368C 369.777,365.234 372.443,362.067 374.5,358.5C 375.798,357.884 376.798,357.884 377.5,358.5 Z"/></g>
<g><path style="opacity:1" fill="#4d6294" d="M 188.5,363.5 C 208.167,363.5 227.833,363.5 247.5,363.5C 238.023,364.832 228.19,365.499 218,365.5C 207.81,365.499 197.977,364.832 188.5,363.5 Z"/></g>
<g><path style="opacity:1" fill="#4b6292" d="M 60.5,343.5 C 63.3149,345.715 66.1482,348.049 69,350.5C 73.2065,357.72 78.7065,363.387 85.5,367.5C 85.5,368.833 85.5,370.167 85.5,371.5C 81.5357,368.037 77.7023,364.37 74,360.5C 69.0102,355.167 64.5102,349.5 60.5,343.5 Z"/></g>
<g><path style="opacity:0.945" fill="#6e7ea4" d="M 87.5,373.5 C 89.7488,374.08 91.4154,375.413 92.5,377.5C 90.2512,376.92 88.5846,375.587 87.5,373.5 Z"/></g>
<g><path style="opacity:0.992" fill="#62769b" d="M 92.5,377.5 C 94.7488,378.08 96.4154,379.413 97.5,381.5C 95.2512,380.92 93.5846,379.587 92.5,377.5 Z"/></g>
<g><path style="opacity:0.953" fill="#6879a0" d="M 97.5,381.5 C 99.7488,382.08 101.415,383.413 102.5,385.5C 100.251,384.92 98.5846,383.587 97.5,381.5 Z"/></g>
<g><path style="opacity:0.294" fill="#c9d2dd" d="M 18.5,204.5 C 19.1667,214.5 19.8333,224.5 20.5,234.5C 21.1223,243.214 22.1223,251.88 23.5,260.5C 23.5651,263.428 24.2318,266.095 25.5,268.5C 26.9977,275.01 28.6643,281.51 30.5,288C 33.1458,294.944 35.9791,301.777 39,308.5C 39.9022,310.431 41.0688,312.097 42.5,313.5C 43.6589,317.151 45.3256,320.485 47.5,323.5C 50.8511,330.886 55.1844,337.552 60.5,343.5C 64.5102,349.5 69.0102,355.167 74,360.5C 77.7023,364.37 81.5357,368.037 85.5,371.5C 85.8333,372.5 86.5,373.167 87.5,373.5C 88.5846,375.587 90.2512,376.92 92.5,377.5C 93.5846,379.587 95.2512,380.92 97.5,381.5C 98.5846,383.587 100.251,384.92 102.5,385.5C 104.296,387.9 106.63,389.567 109.5,390.5C 111.975,393.241 114.975,395.241 118.5,396.5C 120.336,398.588 122.669,399.921 125.5,400.5C 128.947,403.438 132.947,405.438 137.5,406.5C 147.817,412.053 158.817,416.053 170.5,418.5C 171.5,419.167 172.5,419.833 173.5,420.5C 172.209,420.263 171.209,420.596 170.5,421.5C 93.9934,398.493 44.8268,348.493 23,271.5C 18.8519,249.376 17.3519,227.042 18.5,204.5 Z"/></g>
<g><path style="opacity:1" fill="#526798" d="M 102.5,385.5 C 106.457,384.973 108.79,386.639 109.5,390.5C 106.63,389.567 104.296,387.9 102.5,385.5 Z"/></g>
<g><path style="opacity:0.996" fill="#596d9b" d="M 109.5,390.5 C 113.635,390.738 116.635,392.738 118.5,396.5C 114.975,395.241 111.975,393.241 109.5,390.5 Z"/></g>
<g><path style="opacity:0.098" fill="#c5cedb" d="M 374.5,358.5 C 372.443,362.067 369.777,365.234 366.5,368C 367.056,368.383 367.389,368.883 367.5,369.5C 344.211,392.426 316.878,408.759 285.5,418.5C 284.833,418.5 284.5,418.167 284.5,417.5C 285.5,416.833 286.5,416.167 287.5,415.5C 292.845,413.166 298.179,410.832 303.5,408.5C 328.759,398.556 350.425,383.556 368.5,363.5C 370.5,361.833 372.5,360.167 374.5,358.5 Z"/></g>
<g><path style="opacity:0.988" fill="#4d6392" d="M 368.5,363.5 C 350.425,383.556 328.759,398.556 303.5,408.5C 312.981,402.412 322.981,396.745 333.5,391.5C 344.802,383.193 355.469,374.193 365.5,364.5C 366.325,363.614 367.325,363.281 368.5,363.5 Z"/></g>
<g><path style="opacity:0.98" fill="#5e719c" d="M 118.5,396.5 C 121.857,396.216 124.191,397.549 125.5,400.5C 122.669,399.921 120.336,398.588 118.5,396.5 Z"/></g>
<g><path style="opacity:0.969" fill="#4b6290" d="M 303.5,408.5 C 298.179,410.832 292.845,413.166 287.5,415.5C 286.5,415.5 285.5,415.5 284.5,415.5C 288.026,413.797 291.692,411.964 295.5,410C 298.168,409.433 300.834,408.933 303.5,408.5 Z"/></g>
<g><path style="opacity:0.776" fill="#99a8c4" d="M 283.5,415.5 C 283.833,415.5 284.167,415.5 284.5,415.5C 285.5,415.5 286.5,415.5 287.5,415.5C 286.5,416.167 285.5,416.833 284.5,417.5C 283.167,417.5 281.833,417.5 280.5,417.5C 281.5,416.833 282.5,416.167 283.5,415.5 Z"/></g>
<g><path style="opacity:0.99" fill="#496093" d="M 137.5,406.5 C 142.603,406.019 146.936,407.519 150.5,411C 180.95,421.299 212.283,425.132 244.5,422.5C 241.535,423.626 238.535,424.626 235.5,425.5C 226.167,425.5 216.833,425.5 207.5,425.5C 202.402,424.043 197.069,423.376 191.5,423.5C 190.833,423.5 190.167,423.5 189.5,423.5C 187.898,421.926 185.898,421.259 183.5,421.5C 179.319,420.34 174.985,419.34 170.5,418.5C 158.817,416.053 147.817,412.053 137.5,406.5 Z"/></g>
<g><path style="opacity:0.643" fill="#94a2bf" d="M 280.5,417.5 C 278.485,418.924 276.152,419.59 273.5,419.5C 275.515,418.076 277.848,417.41 280.5,417.5 Z"/></g>
<g><path style="opacity:0.863" fill="#7688ab" d="M 170.5,418.5 C 174.985,419.34 179.319,420.34 183.5,421.5C 180.098,421.658 176.764,421.324 173.5,420.5C 172.5,419.833 171.5,419.167 170.5,418.5 Z"/></g>
<g><path style="opacity:0.984" fill="#435b90" d="M 283.5,415.5 C 282.5,416.167 281.5,416.833 280.5,417.5C 277.848,417.41 275.515,418.076 273.5,419.5C 270.273,419.676 267.273,420.343 264.5,421.5C 263.833,421.5 263.167,421.5 262.5,421.5C 257.537,422.254 252.537,422.587 247.5,422.5C 259.237,419.688 271.237,417.355 283.5,415.5 Z"/></g>
<g><path style="opacity:0.765" fill="#8f9ebb" d="M 273.5,419.5 C 270.829,421.118 267.829,421.785 264.5,421.5C 267.273,420.343 270.273,419.676 273.5,419.5 Z"/></g>
<g><path style="opacity:0.663" fill="#90a0bb" d="M 183.5,421.5 C 185.898,421.259 187.898,421.926 189.5,423.5C 187.102,423.741 185.102,423.074 183.5,421.5 Z"/></g>
<g><path style="opacity:0.984" fill="#687ba2" d="M 262.5,421.5 C 256.722,423.287 250.722,424.62 244.5,425.5C 241.5,425.5 238.5,425.5 235.5,425.5C 238.535,424.626 241.535,423.626 244.5,422.5C 245.5,422.5 246.5,422.5 247.5,422.5C 252.537,422.587 257.537,422.254 262.5,421.5 Z"/></g>
<g><path style="opacity:0.149" fill="#e4edf5" d="M 170.5,421.5 C 171.209,420.596 172.209,420.263 173.5,420.5C 176.764,421.324 180.098,421.658 183.5,421.5C 185.102,423.074 187.102,423.741 189.5,423.5C 190.167,423.5 190.833,423.5 191.5,423.5C 195.943,424.801 200.609,425.468 205.5,425.5C 204.5,426.167 203.5,426.833 202.5,427.5C 191.844,425.596 181.178,423.596 170.5,421.5 Z"/></g>
<g><path style="opacity:0.871" fill="#8797b5" d="M 191.5,423.5 C 197.069,423.376 202.402,424.043 207.5,425.5C 206.833,425.5 206.167,425.5 205.5,425.5C 200.609,425.468 195.943,424.801 191.5,423.5 Z"/></g>
<g><path style="opacity:0.186" fill="#e0e9f1" d="M 280.5,417.5 C 281.833,417.5 283.167,417.5 284.5,417.5C 284.5,418.167 284.833,418.5 285.5,418.5C 271.879,422.735 257.879,425.735 243.5,427.5C 243.833,426.833 244.167,426.167 244.5,425.5C 250.722,424.62 256.722,423.287 262.5,421.5C 263.167,421.5 263.833,421.5 264.5,421.5C 267.829,421.785 270.829,421.118 273.5,419.5C 276.152,419.59 278.485,418.924 280.5,417.5 Z"/></g>
<g><path style="opacity:0.18" fill="#bfc7d3" d="M 205.5,425.5 C 206.167,425.5 206.833,425.5 207.5,425.5C 216.833,425.5 226.167,425.5 235.5,425.5C 238.5,425.5 241.5,425.5 244.5,425.5C 244.167,426.167 243.833,426.833 243.5,427.5C 229.833,427.5 216.167,427.5 202.5,427.5C 203.5,426.833 204.5,426.167 205.5,425.5 Z"/></g>
</svg>
