<?xml version="1.0" encoding="UTF-8"?>
<!DOCTYPE svg PUBLIC "-//W3C//DTD SVG 1.1//EN" "http://www.w3.org/Graphics/SVG/1.1/DTD/svg11.dtd">
<svg xmlns="http://www.w3.org/2000/svg"
    version="1.1"
    width="470px"
    height="515px"
    style="shape-rendering:geometricPrecision; text-rendering:geometricPrecision; image-rendering:optimizeQuality; fill-rule:evenodd; clip-rule:evenodd">
<g><path style="opacity:0.975" fill="#76a4fd" d="M 226.5,25.5 C 228.735,25.2053 230.735,25.5386 232.5,26.5C 233.801,27.8816 234.634,29.5483 235,31.5C 235.667,61.8333 235.667,92.1667 235,122.5C 234.535,123.931 233.701,125.097 232.5,126C 230.19,126.497 227.857,126.663 225.5,126.5C 225.217,125.711 224.717,125.044 224,124.5C 223.333,92.8333 223.333,61.1667 224,29.5C 225.481,28.5291 226.315,27.1958 226.5,25.5 Z"/></g>
<g><path style="opacity:0.278" fill="#a8bae6" d="M 226.5,25.5 C 226.315,27.1958 225.481,28.5291 224,29.5C 223.333,61.1667 223.333,92.8333 224,124.5C 224.717,125.044 225.217,125.711 225.5,126.5C 223.589,126.426 222.422,125.426 222,123.5C 221.333,92.5 221.333,61.5 222,30.5C 222.996,28.3395 224.496,26.6728 226.5,25.5 Z"/></g>
<g><path style="opacity:0.012" fill="#bdc4d7" d="M 365.5,66.5 C 366.912,63.9041 368.579,61.4041 370.5,59C 371.493,49.3791 367.493,46.8791 358.5,51.5C 359.378,48.7133 361.378,47.38 364.5,47.5C 372.92,49.3377 375.087,54.0044 371,61.5C 369.296,63.3734 367.463,65.0401 365.5,66.5 Z"/></g>
<g><path style="opacity:0.985" fill="#78a5fd" d="M 101.5,53.5 C 106.112,60.7785 111.779,67.1118 118.5,72.5C 120.116,77.0565 123.116,80.3898 127.5,82.5C 128.167,82.5 128.5,82.8333 128.5,83.5C 131.844,90.6617 136.844,96.3284 143.5,100.5C 143.709,101.922 144.209,103.255 145,104.5C 147.663,106.334 150.163,108.334 152.5,110.5C 153.167,110.5 153.5,110.833 153.5,111.5C 154.031,113.544 155.198,115.211 157,116.5C 159.167,124.834 156,128.167 147.5,126.5C 128.213,103.545 108.213,81.2116 87.5,59.5C 86.4931,51.6722 89.8265,48.5056 97.5,50C 98.7051,51.3756 100.038,52.5423 101.5,53.5 Z"/></g>
<g><path style="opacity:0.987" fill="#78a5fd" d="M 365.5,66.5 C 361.598,68.8926 358.098,71.8926 355,75.5C 347.216,84.1056 340.049,93.1056 333.5,102.5C 333.5,103.167 333.167,103.5 332.5,103.5C 324.78,108.556 318.78,115.223 314.5,123.5C 313.005,123.415 312.005,124.081 311.5,125.5C 308.914,126.48 306.247,126.813 303.5,126.5C 302.278,124.714 301.611,122.714 301.5,120.5C 302.057,117.954 303.057,115.621 304.5,113.5C 313.517,103.318 322.684,93.3183 332,83.5C 332.483,82.552 332.649,81.552 332.5,80.5C 335.394,79.1177 337.894,77.1177 340,74.5C 346.403,66.9399 352.57,59.2732 358.5,51.5C 367.493,46.8791 371.493,49.3791 370.5,59C 368.579,61.4041 366.912,63.9041 365.5,66.5 Z"/></g>
<g><path style="opacity:0.416" fill="#c0cde9" d="M 101.5,53.5 C 100.038,52.5423 98.7051,51.3756 97.5,50C 89.8265,48.5056 86.4931,51.6722 87.5,59.5C 84.0901,51.0511 87.0901,47.2178 96.5,48C 99.079,49.0757 100.746,50.909 101.5,53.5 Z"/></g>
<g><path style="opacity:0.239" fill="#c0cce0" d="M 101.5,53.5 C 107.868,59.2589 113.535,65.5923 118.5,72.5C 111.779,67.1118 106.112,60.7785 101.5,53.5 Z"/></g>
<g><path style="opacity:0.122" fill="#c4cddf" d="M 358.5,51.5 C 352.57,59.2732 346.403,66.9399 340,74.5C 337.894,77.1177 335.394,79.1177 332.5,80.5C 337.476,74.6826 342.309,68.6826 347,62.5C 350.702,58.6295 354.536,54.9629 358.5,51.5 Z"/></g>
<g><path style="opacity:0.251" fill="#b2bdda" d="M 118.5,72.5 C 122.234,75.2311 125.234,78.5644 127.5,82.5C 123.116,80.3898 120.116,77.0565 118.5,72.5 Z"/></g>
<g><path style="opacity:0.451" fill="#bbcefa" d="M 232.5,26.5 C 234.752,26.9156 236.252,28.249 237,30.5C 237.667,61.1667 237.667,91.8333 237,122.5C 235.356,125.311 233.19,127.644 230.5,129.5C 228.604,128.725 226.937,127.725 225.5,126.5C 227.857,126.663 230.19,126.497 232.5,126C 233.701,125.097 234.535,123.931 235,122.5C 235.667,92.1667 235.667,61.8333 235,31.5C 234.634,29.5483 233.801,27.8816 232.5,26.5 Z"/></g>
<g><path style="opacity:0.271" fill="#c4d1ef" d="M 87.5,59.5 C 108.213,81.2116 128.213,103.545 147.5,126.5C 142.609,122.113 137.776,117.446 133,112.5C 117.818,94.7708 102.651,77.1041 87.5,59.5 Z"/></g>
<g><path style="opacity:0.149" fill="#bac6e1" d="M 365.5,66.5 C 357.878,75.9604 350.044,85.2937 342,94.5C 339.297,97.3714 336.464,100.038 333.5,102.5C 340.049,93.1056 347.216,84.1056 355,75.5C 358.098,71.8926 361.598,68.8926 365.5,66.5 Z"/></g>
<g><path style="opacity:0.51" fill="#afc2e6" d="M 128.5,83.5 C 133.865,88.8641 138.865,94.5308 143.5,100.5C 136.844,96.3284 131.844,90.6617 128.5,83.5 Z"/></g>
<g><path style="opacity:0.196" fill="#bdc9e1" d="M 143.5,100.5 C 147.234,103.231 150.234,106.564 152.5,110.5C 150.163,108.334 147.663,106.334 145,104.5C 144.209,103.255 143.709,101.922 143.5,100.5 Z"/></g>
<g><path style="opacity:0.102" fill="#bec9de" d="M 332.5,80.5 C 332.649,81.552 332.483,82.552 332,83.5C 322.684,93.3183 313.517,103.318 304.5,113.5C 303.167,114.5 301.833,115.5 300.5,116.5C 301.75,114.068 303.25,111.734 305,109.5C 314.033,99.6353 323.2,89.9686 332.5,80.5 Z"/></g>
<g><path style="opacity:0.631" fill="#acc5f9" d="M 304.5,113.5 C 303.057,115.621 302.057,117.954 301.5,120.5C 301.611,122.714 302.278,124.714 303.5,126.5C 301.589,126.426 300.422,125.426 300,123.5C 299.297,121.071 299.463,118.738 300.5,116.5C 301.833,115.5 303.167,114.5 304.5,113.5 Z"/></g>
<g><path style="opacity:0.18" fill="#b3c2e3" d="M 332.5,103.5 C 326.842,110.491 320.842,117.157 314.5,123.5C 318.78,115.223 324.78,108.556 332.5,103.5 Z"/></g>
<g><path style="opacity:0.227" fill="#b6c1da" d="M 153.5,111.5 C 160.051,115.646 161.051,120.813 156.5,127C 153.127,130.411 150.127,130.244 147.5,126.5C 156,128.167 159.167,124.834 157,116.5C 155.198,115.211 154.031,113.544 153.5,111.5 Z"/></g>
<g><path style="opacity:0.537" fill="#c1ceed" d="M 314.5,123.5 C 313.286,126.634 310.953,128.634 307.5,129.5C 305.739,128.965 304.406,127.965 303.5,126.5C 306.247,126.813 308.914,126.48 311.5,125.5C 312.005,124.081 313.005,123.415 314.5,123.5 Z"/></g>
<g><path style="opacity:0.215" fill="#cfd5e1" d="M 385.5,172.5 C 385.5,172.833 385.5,173.167 385.5,173.5C 284.332,173.833 183.332,173.499 82.5,172.5C 183.402,171.168 284.402,171.168 385.5,172.5 Z"/></g>
<g><path style="opacity:0.624" fill="#5086ea" d="M 81.5,172.5 C 81.8333,172.5 82.1667,172.5 82.5,172.5C 183.332,173.499 284.332,173.833 385.5,173.5C 386.167,173.5 386.5,173.833 386.5,174.5C 284.833,174.5 183.167,174.5 81.5,174.5C 81.5,173.833 81.5,173.167 81.5,172.5 Z"/></g>
<g><path style="opacity:0.998" fill="#2466e7" d="M 81.5,174.5 C 183.167,174.5 284.833,174.5 386.5,174.5C 387.552,174.351 388.552,174.517 389.5,175C 392.331,177.001 394.997,179.167 397.5,181.5C 404.508,204.025 411.841,226.525 419.5,249C 419.836,250.03 420.503,250.53 421.5,250.5C 421.5,250.833 421.5,251.167 421.5,251.5C 421.259,253.898 421.926,255.898 423.5,257.5C 423.756,260.598 424.422,263.598 425.5,266.5C 425.77,270.358 427.103,273.691 429.5,276.5C 434.655,292.119 439.655,307.786 444.5,323.5C 445.32,325.812 446.153,328.146 447,330.5C 447.667,378.5 447.667,426.5 447,474.5C 445.787,478.869 443.287,482.203 439.5,484.5C 303.861,485.495 168.195,485.828 32.5,485.5C 28.6165,484.427 25.2832,482.427 22.5,479.5C 22.5,478.833 22.5,478.167 22.5,477.5C 21.3475,428.529 21.1808,379.529 22,330.5C 23.3158,327.312 23.8158,323.978 23.5,320.5C 24.7498,320.423 25.5831,319.756 26,318.5C 26.4966,316.19 26.6633,313.857 26.5,311.5C 26.5,311.167 26.5,310.833 26.5,310.5C 27.4972,310.53 28.1639,310.03 28.5,309C 34.4105,291.101 40.4105,273.268 46.5,255.5C 47.0822,251.468 48.4155,247.801 50.5,244.5C 52.8764,240.595 53.8764,236.261 53.5,231.5C 54.4584,231.047 55.2917,230.381 56,229.5C 60.4172,213.994 65.4172,198.66 71,183.5C 72.8534,178.473 76.3534,175.473 81.5,174.5 Z"/></g>
<g><path style="opacity:0.145" fill="#a6b9e3" d="M 385.5,173.5 C 385.5,173.167 385.5,172.833 385.5,172.5C 391.001,173.576 395.001,176.576 397.5,181.5C 394.997,179.167 392.331,177.001 389.5,175C 388.552,174.517 387.552,174.351 386.5,174.5C 386.5,173.833 386.167,173.5 385.5,173.5 Z"/></g>
<g><path style="opacity:0.173" fill="#97adde" d="M 81.5,172.5 C 81.5,173.167 81.5,173.833 81.5,174.5C 76.3534,175.473 72.8534,178.473 71,183.5C 65.4172,198.66 60.4172,213.994 56,229.5C 55.2917,230.381 54.4584,231.047 53.5,231.5C 58.356,215.413 63.5226,199.413 69,183.5C 71.4743,177.856 75.641,174.189 81.5,172.5 Z"/></g>
<g><path style="opacity:1" fill="#bacef7" d="M 83.5,187.5 C 82.6505,191.553 81.4838,195.553 80,199.5C 79.6174,200.056 79.1174,200.389 78.5,200.5C 79.5995,195.856 81.2661,191.522 83.5,187.5 Z"/></g>
<g><path style="opacity:1" fill="#95b2f2" d="M 386.5,192.5 C 390.921,202.084 394.588,212.084 397.5,222.5C 393.079,212.916 389.412,202.916 386.5,192.5 Z"/></g>
<g><path style="opacity:1" fill="#e7effd" d="M 429.5,318.5 C 430.537,319.93 431.204,321.597 431.5,323.5C 388.165,323.333 344.832,323.5 301.5,324C 300.584,324.278 299.918,324.778 299.5,325.5C 295.91,326.588 293.41,328.921 292,332.5C 292.312,361.942 279.145,382.275 252.5,393.5C 249.848,393.41 247.515,394.076 245.5,395.5C 237.457,396.771 229.457,396.771 221.5,395.5C 219.485,394.076 217.152,393.41 214.5,393.5C 194.505,385.892 182.172,371.558 177.5,350.5C 177.184,344.651 176.518,338.984 175.5,333.5C 173.812,329.812 171.145,327.145 167.5,325.5C 166.737,324.732 165.737,324.232 164.5,324C 139.833,323.333 115.167,323.333 90.5,324C 89.944,324.383 89.6107,324.883 89.5,325.5C 86.8345,329.246 87.1678,332.913 90.5,336.5C 83.5,336.5 76.5,336.5 69.5,336.5C 74.381,332.805 74.7144,328.639 70.5,324C 64.0853,323.21 57.752,323.376 51.5,324.5C 57.7829,322.857 64.4495,321.857 71.5,321.5C 84.645,291.382 97.145,261.049 109,230.5C 110.833,226 114,222.833 118.5,221C 195.167,220.333 271.833,220.333 348.5,221C 353.185,222.35 356.685,225.183 359,229.5C 371.359,260.65 383.859,291.65 396.5,322.5C 407.5,322.5 418.5,322.5 429.5,322.5C 429.5,321.167 429.5,319.833 429.5,318.5 Z"/></g>
<g><path style="opacity:0.361" fill="#9db1dd" d="M 397.5,181.5 C 400.462,187.197 402.962,193.197 405,199.5C 410.805,216.414 416.305,233.414 421.5,250.5C 420.503,250.53 419.836,250.03 419.5,249C 411.841,226.525 404.508,204.025 397.5,181.5 Z"/></g>
<g><path style="opacity:0.227" fill="#b3c6db" d="M 52.5,234.5 C 51.6261,237.789 50.9595,241.123 50.5,244.5C 48.4155,247.801 47.0822,251.468 46.5,255.5C 45.8333,255.167 45.1667,254.833 44.5,254.5C 46.5986,247.523 49.2653,240.857 52.5,234.5 Z"/></g>
<g><path style="opacity:0.502" fill="#638deb" d="M 53.5,231.5 C 53.8764,236.261 52.8764,240.595 50.5,244.5C 50.9595,241.123 51.6261,237.789 52.5,234.5C 52.2627,233.209 52.596,232.209 53.5,231.5 Z"/></g>
<g><path style="opacity:1" fill="#7fa3f0" d="M 63.5,246.5 C 61.7343,253.139 59.401,259.473 56.5,265.5C 57.8788,258.685 60.2122,252.351 63.5,246.5 Z"/></g>
<g><path style="opacity:0.353" fill="#99afe8" d="M 421.5,251.5 C 422.738,253.214 423.405,255.214 423.5,257.5C 421.926,255.898 421.259,253.898 421.5,251.5 Z"/></g>
<g><path style="opacity:1" fill="#9bb7f3" d="M 56.5,265.5 C 54.9428,273.168 52.6094,280.501 49.5,287.5C 51.0572,279.832 53.3906,272.499 56.5,265.5 Z"/></g>
<g><path style="opacity:0.208" fill="#a1b3dc" d="M 44.5,254.5 C 45.1667,254.833 45.8333,255.167 46.5,255.5C 40.4105,273.268 34.4105,291.101 28.5,309C 28.1639,310.03 27.4972,310.53 26.5,310.5C 32.3021,291.761 38.3021,273.094 44.5,254.5 Z"/></g>
<g><path style="opacity:0.859" fill="#638eed" d="M 425.5,266.5 C 427.4,269.518 428.733,272.851 429.5,276.5C 427.103,273.691 425.77,270.358 425.5,266.5 Z"/></g>
<g><path style="opacity:1" fill="#7198ee" d="M 412.5,268.5 C 415.658,273.633 417.658,279.3 418.5,285.5C 416.129,280.059 414.129,274.392 412.5,268.5 Z"/></g>
<g><path style="opacity:0.071" fill="#a7b7d8" d="M 423.5,257.5 C 432.126,279.375 439.793,301.708 446.5,324.5C 445.833,324.167 445.167,323.833 444.5,323.5C 439.655,307.786 434.655,292.119 429.5,276.5C 428.733,272.851 427.4,269.518 425.5,266.5C 424.422,263.598 423.756,260.598 423.5,257.5 Z"/></g>
<g><path style="opacity:1" fill="#9eb9f4" d="M 418.5,285.5 C 421.204,291.941 423.537,298.608 425.5,305.5C 422.009,299.365 419.675,292.698 418.5,285.5 Z"/></g>
<g><path style="opacity:1" fill="#b0c6f6" d="M 425.5,306.5 C 427.204,309.939 428.538,313.605 429.5,317.5C 427.01,314.374 425.677,310.708 425.5,306.5 Z"/></g>
<g><path style="opacity:0.608" fill="#82a0e9" d="M 26.5,311.5 C 26.6633,313.857 26.4966,316.19 26,318.5C 25.5831,319.756 24.7498,320.423 23.5,320.5C 23.9281,317.215 24.9281,314.215 26.5,311.5 Z"/></g>
<g><path style="opacity:1" fill="#4a81eb" d="M 167.5,325.5 C 141.477,324.194 115.477,324.194 89.5,325.5C 89.6107,324.883 89.944,324.383 90.5,324C 115.167,323.333 139.833,323.333 164.5,324C 165.737,324.232 166.737,324.732 167.5,325.5 Z"/></g>
<g><path style="opacity:1" fill="#4b82eb" d="M 431.5,323.5 C 387.65,324.193 343.65,324.859 299.5,325.5C 299.918,324.778 300.584,324.278 301.5,324C 344.832,323.5 388.165,323.333 431.5,323.5 Z"/></g>
<g><path style="opacity:1" fill="#2d6ae8" d="M 69.5,336.5 C 63.4908,336.666 57.4908,336.499 51.5,336C 47.5191,332.047 47.5191,328.214 51.5,324.5C 57.752,323.376 64.0853,323.21 70.5,324C 74.7144,328.639 74.381,332.805 69.5,336.5 Z"/></g>
<g><path style="opacity:0.569" fill="#437be9" d="M 23.5,320.5 C 23.8158,323.978 23.3158,327.312 22,330.5C 21.1808,379.529 21.3475,428.529 22.5,477.5C 21.7784,477.082 21.2784,476.416 21,475.5C 20.3333,426.833 20.3333,378.167 21,329.5C 21.813,327.564 22.313,325.564 22.5,323.5C 22.2627,322.209 22.596,321.209 23.5,320.5 Z"/></g>
<g><path style="opacity:0.45" fill="#9bafdd" d="M 444.5,323.5 C 445.167,323.833 445.833,324.167 446.5,324.5C 447.423,326.767 448.256,329.1 449,331.5C 449.667,379.167 449.667,426.833 449,474.5C 448.093,480.233 444.927,483.899 439.5,485.5C 439.5,485.167 439.5,484.833 439.5,484.5C 443.287,482.203 445.787,478.869 447,474.5C 447.667,426.5 447.667,378.5 447,330.5C 446.153,328.146 445.32,325.812 444.5,323.5 Z"/></g>
<g><path style="opacity:0.18" fill="#a9b7d2" d="M 22.5,323.5 C 22.313,325.564 21.813,327.564 21,329.5C 20.3333,378.167 20.3333,426.833 21,475.5C 21.2784,476.416 21.7784,477.082 22.5,477.5C 22.5,478.167 22.5,478.833 22.5,479.5C 21.2101,478.942 20.3768,477.942 20,476.5C 19.3333,427.167 19.3333,377.833 20,328.5C 20.3736,326.509 21.207,324.842 22.5,323.5 Z"/></g>
<g><path style="opacity:1" fill="#a6c1f5" d="M 434.5,337.5 C 391.167,337.5 347.833,337.5 304.5,337.5C 304.813,341.042 304.479,344.375 303.5,347.5C 303.5,343.833 303.5,340.167 303.5,336.5C 347.337,336.168 391.003,336.501 434.5,337.5 Z"/></g>
<g><path style="opacity:1" fill="#fdfdfe" d="M 386.5,192.5 C 389.412,202.916 393.079,212.916 397.5,222.5C 402.807,237.727 407.807,253.06 412.5,268.5C 414.129,274.392 416.129,280.059 418.5,285.5C 419.675,292.698 422.009,299.365 425.5,305.5C 425.5,305.833 425.5,306.167 425.5,306.5C 425.677,310.708 427.01,314.374 429.5,317.5C 429.5,317.833 429.5,318.167 429.5,318.5C 429.5,319.833 429.5,321.167 429.5,322.5C 418.5,322.5 407.5,322.5 396.5,322.5C 383.859,291.65 371.359,260.65 359,229.5C 356.685,225.183 353.185,222.35 348.5,221C 271.833,220.333 195.167,220.333 118.5,221C 114,222.833 110.833,226 109,230.5C 97.145,261.049 84.645,291.382 71.5,321.5C 64.4495,321.857 57.7829,322.857 51.5,324.5C 47.5191,328.214 47.5191,332.047 51.5,336C 57.4908,336.499 63.4908,336.666 69.5,336.5C 76.5,336.5 83.5,336.5 90.5,336.5C 114.502,336.333 138.502,336.5 162.5,337C 163.156,364.157 174.822,384.991 197.5,399.5C 197.973,400.906 198.973,401.573 200.5,401.5C 217.008,409.849 234.341,411.683 252.5,407C 258.933,405.361 264.933,402.861 270.5,399.5C 272.027,399.573 273.027,398.906 273.5,397.5C 275.027,397.573 276.027,396.906 276.5,395.5C 280.141,392.195 283.808,388.862 287.5,385.5C 289.587,384.415 290.92,382.749 291.5,380.5C 292.917,377.331 294.583,374.331 296.5,371.5C 299.16,368.887 300.493,365.554 300.5,361.5C 301.924,359.485 302.59,357.152 302.5,354.5C 303.468,352.393 303.802,350.059 303.5,347.5C 304.479,344.375 304.813,341.042 304.5,337.5C 347.833,337.5 391.167,337.5 434.5,337.5C 434.83,382.739 434.497,427.905 433.5,473C 300.5,473.667 167.5,473.667 34.5,473C 33.3365,426.237 33.1698,379.404 34,332.5C 39.03,317.343 44.1967,302.343 49.5,287.5C 52.6094,280.501 54.9428,273.168 56.5,265.5C 59.401,259.473 61.7343,253.139 63.5,246.5C 68.1023,231.027 73.1023,215.693 78.5,200.5C 79.1174,200.389 79.6174,200.056 80,199.5C 81.4838,195.553 82.6505,191.553 83.5,187.5C 183.666,186.334 283.999,186.167 384.5,187C 386.155,188.444 386.822,190.278 386.5,192.5 Z"/></g>
<g><path style="opacity:1" fill="#86a9f2" d="M 175.5,333.5 C 176.518,338.984 177.184,344.651 177.5,350.5C 176.778,350.082 176.278,349.416 176,348.5C 175.501,343.511 175.334,338.511 175.5,333.5 Z"/></g>
<g><path style="opacity:1" fill="#79a0f0" d="M 302.5,354.5 C 302.59,357.152 301.924,359.485 300.5,361.5C 300.41,358.848 301.076,356.515 302.5,354.5 Z"/></g>
<g><path style="opacity:1" fill="#a4bcf4" d="M 300.5,361.5 C 300.493,365.554 299.16,368.887 296.5,371.5C 297.658,368.011 298.991,364.678 300.5,361.5 Z"/></g>
<g><path style="opacity:1" fill="#b7cbf7" d="M 291.5,380.5 C 290.92,382.749 289.587,384.415 287.5,385.5C 288.08,383.251 289.413,381.585 291.5,380.5 Z"/></g>
<g><path style="opacity:1" fill="#85a9f2" d="M 214.5,393.5 C 217.152,393.41 219.485,394.076 221.5,395.5C 218.848,395.59 216.515,394.924 214.5,393.5 Z"/></g>
<g><path style="opacity:1" fill="#6993ee" d="M 252.5,393.5 C 250.562,395.163 248.228,395.829 245.5,395.5C 247.515,394.076 249.848,393.41 252.5,393.5 Z"/></g>
<g><path style="opacity:1" fill="#a8c0f5" d="M 276.5,395.5 C 276.027,396.906 275.027,397.573 273.5,397.5C 273.973,396.094 274.973,395.427 276.5,395.5 Z"/></g>
<g><path style="opacity:1" fill="#a7c0f5" d="M 273.5,397.5 C 273.027,398.906 272.027,399.573 270.5,399.5C 270.973,398.094 271.973,397.427 273.5,397.5 Z"/></g>
<g><path style="opacity:1" fill="#7ba0f0" d="M 197.5,399.5 C 199.027,399.427 200.027,400.094 200.5,401.5C 198.973,401.573 197.973,400.906 197.5,399.5 Z"/></g>
<g><path style="opacity:0.345" fill="#99a8d0" d="M 22.5,479.5 C 25.2832,482.427 28.6165,484.427 32.5,485.5C 167.332,486.5 302.332,486.833 437.5,486.5C 302.334,487.666 167.001,487.833 31.5,487C 27.0916,486.084 24.0916,483.584 22.5,479.5 Z"/></g>
<g><path style="opacity:0.482" fill="#5186eb" d="M 439.5,484.5 C 439.5,484.833 439.5,485.167 439.5,485.5C 439.158,486.338 438.492,486.672 437.5,486.5C 302.332,486.833 167.332,486.5 32.5,485.5C 168.195,485.828 303.861,485.495 439.5,484.5 Z"/></g>
</svg>
