<?xml version="1.0" encoding="UTF-8"?>
<!DOCTYPE svg PUBLIC "-//W3C//DTD SVG 1.1//EN" "http://www.w3.org/Graphics/SVG/1.1/DTD/svg11.dtd">
<svg xmlns="http://www.w3.org/2000/svg" version="1.1" width="542px" height="615px" style="shape-rendering:geometricPrecision; text-rendering:geometricPrecision; image-rendering:optimizeQuality; fill-rule:evenodd; clip-rule:evenodd" xmlns:xlink="http://www.w3.org/1999/xlink">
<g><path style="opacity:0.086" fill="#bfcbdb" d="M 470.5,22.5 C 470.167,22.5 469.833,22.5 469.5,22.5C 467.598,21.4891 465.598,21.3224 463.5,22C 462.468,23.6268 461.134,24.7934 459.5,25.5C 459.624,23.4184 460.624,21.9184 462.5,21C 464.833,20.3333 467.167,20.3333 469.5,21C 470.056,21.3826 470.389,21.8826 470.5,22.5 Z"/></g>
<g><path style="opacity:0.963" fill="#77a5fd" d="M 469.5,22.5 C 469.783,23.2891 470.283,23.9558 471,24.5C 471.667,35.8333 471.667,47.1667 471,58.5C 468.695,60.9305 465.862,61.9305 462.5,61.5C 462.539,60.2438 462.039,59.2438 461,58.5C 460.811,47.424 460.311,36.424 459.5,25.5C 461.134,24.7934 462.468,23.6268 463.5,22C 465.598,21.3224 467.598,21.4891 469.5,22.5 Z"/></g>
<g><path style="opacity:0.337" fill="#d5dbea" d="M 459.5,25.5 C 460.311,36.424 460.811,47.424 461,58.5C 462.039,59.2438 462.539,60.2438 462.5,61.5C 460.589,61.4257 459.422,60.4257 459,58.5C 458.174,47.3255 458.341,36.3255 459.5,25.5 Z"/></g>
<g><path style="opacity:0.404" fill="#a5bced" d="M 469.5,22.5 C 469.833,22.5 470.167,22.5 470.5,22.5C 471.79,23.0577 472.623,24.0577 473,25.5C 473.667,36.5 473.667,47.5 473,58.5C 470.443,63.5113 466.943,64.5113 462.5,61.5C 465.862,61.9305 468.695,60.9305 471,58.5C 471.667,47.1667 471.667,35.8333 471,24.5C 470.283,23.9558 469.783,23.2891 469.5,22.5 Z"/></g>
<g><path style="opacity:0.114" fill="#d4dcec" d="M 416.5,68.5 C 427.659,67.3407 438.992,67.1741 450.5,68C 454.463,70.2657 455.463,73.4323 453.5,77.5C 454.428,73.517 453.095,70.8503 449.5,69.5C 438.679,68.5054 427.679,68.1721 416.5,68.5 Z"/></g>
<g><path style="opacity:0.431" fill="#a7c5fd" d="M 415.5,68.5 C 415.833,68.5 416.167,68.5 416.5,68.5C 427.679,68.1721 438.679,68.5054 449.5,69.5C 438.086,69.1894 426.752,69.5227 415.5,70.5C 415.5,69.8333 415.5,69.1667 415.5,68.5 Z"/></g>
<g><path style="opacity:0.431" fill="#b6caf5" d="M 519.5,71.5 C 519.5,71.8333 519.5,72.1667 519.5,72.5C 518.373,71.8783 517.373,71.045 516.5,70C 505.167,69.3333 493.833,69.3333 482.5,70C 480.821,72.5645 480.154,75.3979 480.5,78.5C 480.167,78.5 479.833,78.5 479.5,78.5C 477.04,75.5754 477.206,72.5754 480,69.5C 480.75,68.8742 481.584,68.3742 482.5,68C 493.5,67.3333 504.5,67.3333 515.5,68C 517.324,68.66 518.657,69.8267 519.5,71.5 Z"/></g>
<g><path style="opacity:0.966" fill="#77a5fd" d="M 449.5,69.5 C 453.095,70.8503 454.428,73.517 453.5,77.5C 453.672,78.4916 453.338,79.1583 452.5,79.5C 440.867,80.6028 429.2,80.7695 417.5,80C 413.787,78.3088 412.621,75.4755 414,71.5C 414.383,70.944 414.883,70.6107 415.5,70.5C 426.752,69.5227 438.086,69.1894 449.5,69.5 Z"/></g>
<g><path style="opacity:0.966" fill="#76a4fd" d="M 519.5,72.5 C 520.041,75.6516 519.041,78.1516 516.5,80C 505.167,80.6667 493.833,80.6667 482.5,80C 481.956,79.2828 481.289,78.7828 480.5,78.5C 480.154,75.3979 480.821,72.5645 482.5,70C 493.833,69.3333 505.167,69.3333 516.5,70C 517.373,71.045 518.373,71.8783 519.5,72.5 Z"/></g>
<g><path style="opacity:0.376" fill="#b7c3dc" d="M 329.5,90.5 C 313.952,84.5402 297.952,80.2068 281.5,77.5C 278.411,76.2154 275.078,75.5488 271.5,75.5C 241.813,71.6962 212.479,73.5295 183.5,81C 173.418,83.6358 163.751,87.1358 154.5,91.5C 153.833,91.5 153.167,91.5 152.5,91.5C 154.353,89.554 156.686,88.054 159.5,87C 213.052,66.7872 266.719,66.4539 320.5,86C 323.823,87.0399 326.823,88.5399 329.5,90.5 Z"/></g>
<g><path style="opacity:0.997" fill="#2867e7" d="M 271.5,75.5 C 274.337,77.4023 277.671,78.069 281.5,77.5C 297.952,80.2068 313.952,84.5402 329.5,90.5C 329.953,91.4584 330.619,92.2917 331.5,93C 340.139,96.6527 348.472,100.819 356.5,105.5C 365.818,111.163 374.818,117.329 383.5,124C 395.032,134.366 406.032,145.2 416.5,156.5C 417.08,158.749 418.413,160.415 420.5,161.5C 420.427,163.027 421.094,164.027 422.5,164.5C 426.871,170.887 430.871,177.554 434.5,184.5C 441.241,197.117 447.574,209.784 453.5,222.5C 466.058,264.583 467.891,307.249 459,350.5C 457.275,357.758 455.109,364.758 452.5,371.5C 447.518,382.756 442.518,394.09 437.5,405.5C 432.18,413.463 426.846,421.463 421.5,429.5C 419.037,431.732 417.037,434.398 415.5,437.5C 412.5,440.167 409.5,440.167 406.5,437.5C 405.445,434.927 405.278,432.261 406,429.5C 410.03,423.98 414.197,418.647 418.5,413.5C 420.408,412.514 421.408,410.848 421.5,408.5C 422.906,408.027 423.573,407.027 423.5,405.5C 425.408,404.514 426.408,402.848 426.5,400.5C 432.404,388.698 437.737,376.698 442.5,364.5C 443.924,362.485 444.59,360.152 444.5,357.5C 446.074,355.898 446.741,353.898 446.5,351.5C 446.5,350.833 446.5,350.167 446.5,349.5C 447.924,347.485 448.59,345.152 448.5,342.5C 449.804,338.64 450.471,334.64 450.5,330.5C 451.785,327.411 452.451,324.078 452.5,320.5C 452.667,303.83 452.5,287.163 452,270.5C 450.375,261.205 448.541,251.872 446.5,242.5C 446.554,239.008 445.554,236.008 443.5,233.5C 422.519,169.183 380.519,124.516 317.5,99.5C 317.389,98.8826 317.056,98.3826 316.5,98C 312.553,96.5162 308.553,95.3495 304.5,94.5C 301.436,94.0725 298.436,93.4058 295.5,92.5C 293.898,90.9261 291.898,90.2594 289.5,90.5C 263.995,85.1453 238.328,84.1453 212.5,87.5C 204.842,87.7003 197.508,89.0337 190.5,91.5C 188.901,91.2322 187.568,91.5655 186.5,92.5C 180.834,93.3904 175.5,95.057 170.5,97.5C 168.62,97.2291 167.287,97.8958 166.5,99.5C 137.855,109.499 113.188,125.499 92.5,147.5C 89.7573,149.239 87.7573,151.573 86.5,154.5C 85.5,154.833 84.8333,155.5 84.5,156.5C 82.086,157.911 80.4194,159.911 79.5,162.5C 72.2774,169.942 66.2774,178.275 61.5,187.5C 60.0937,187.973 59.427,188.973 59.5,190.5C 59.6716,191.492 59.3382,192.158 58.5,192.5C 57.0937,192.973 56.427,193.973 56.5,195.5C 51.4271,204.319 47.4271,213.652 44.5,223.5C 42.9348,225.509 41.9348,227.843 41.5,230.5C 36.1852,246.741 33.1852,263.408 32.5,280.5C 31.8338,286.324 31.5005,292.324 31.5,298.5C 31.2945,307.059 31.9611,315.392 33.5,323.5C 37.1745,348.894 44.8412,372.894 56.5,395.5C 56.427,397.027 57.0937,398.027 58.5,398.5C 66.0139,412.184 75.0139,424.85 85.5,436.5C 86.1667,439.167 87.8333,440.833 90.5,441.5C 110.549,463.028 134.215,479.362 161.5,490.5C 163.509,492.065 165.843,493.065 168.5,493.5C 170.214,494.738 172.214,495.405 174.5,495.5C 178.502,497.61 182.835,498.943 187.5,499.5C 195.131,502.403 203.131,504.07 211.5,504.5C 216.269,505.889 221.269,506.556 226.5,506.5C 259.782,509.063 291.782,504.063 322.5,491.5C 324.698,491.88 326.365,491.213 327.5,489.5C 333.075,486.713 338.741,483.879 344.5,481C 347.039,480.204 349.372,480.371 351.5,481.5C 351.92,483.094 352.586,484.594 353.5,486C 352.956,487.585 352.289,489.085 351.5,490.5C 349.81,490.856 348.81,491.856 348.5,493.5C 343.588,493.794 339.255,495.461 335.5,498.5C 329.148,501.733 322.482,504.4 315.5,506.5C 297.508,512.532 279.175,516.532 260.5,518.5C 259.167,518.5 257.833,518.5 256.5,518.5C 234.492,519.412 212.826,517.412 191.5,512.5C 173.86,508.789 157.194,502.622 141.5,494C 140.207,493.51 138.873,493.343 137.5,493.5C 136.7,491.259 135.034,490.259 132.5,490.5C 132.631,489.624 132.298,488.957 131.5,488.5C 119.927,481.89 108.927,474.557 98.5,466.5C 91.5,460.167 84.8333,453.5 78.5,446.5C 53.6484,418.803 36.6484,386.803 27.5,350.5C 22.3703,328.493 20.037,306.159 20.5,283.5C 20.5,281.833 20.5,280.167 20.5,278.5C 22.1042,274.1 22.7709,269.434 22.5,264.5C 22.5,262.833 22.5,261.167 22.5,259.5C 23.9238,257.485 24.5905,255.152 24.5,252.5C 28.6144,229.819 36.281,208.485 47.5,188.5C 49.5265,185.78 51.1932,182.78 52.5,179.5C 52.5,178.833 52.5,178.167 52.5,177.5C 53.4959,177.586 54.3292,177.252 55,176.5C 57.5457,173.14 59.3791,169.474 60.5,165.5C 64.7463,162.391 68.0796,158.391 70.5,153.5C 78.1667,145.167 86.1667,137.167 94.5,129.5C 107.817,117.509 122.484,107.509 138.5,99.5C 143.899,96.8007 149.232,94.134 154.5,91.5C 163.751,87.1358 173.418,83.6358 183.5,81C 212.479,73.5295 241.813,71.6962 271.5,75.5 Z"/></g>
<g><path style="opacity:0.846" fill="#537fea" d="M 271.5,75.5 C 275.078,75.5488 278.411,76.2154 281.5,77.5C 277.671,78.069 274.337,77.4023 271.5,75.5 Z"/></g>
<g><path style="opacity:0.306" fill="#c2d4e8" d="M 415.5,68.5 C 415.5,69.1667 415.5,69.8333 415.5,70.5C 414.883,70.6107 414.383,70.944 414,71.5C 412.621,75.4755 413.787,78.3088 417.5,80C 429.2,80.7695 440.867,80.6028 452.5,79.5C 451.942,80.7899 450.942,81.6232 449.5,82C 438.833,82.6667 428.167,82.6667 417.5,82C 412.774,79.6117 411.274,75.7784 413,70.5C 413.708,69.6195 414.542,68.9528 415.5,68.5 Z"/></g>
<g><path style="opacity:0.306" fill="#c3d4e6" d="M 519.5,71.5 C 521.645,76.2122 520.311,79.7122 515.5,82C 504.5,82.6667 493.5,82.6667 482.5,82C 480.574,81.5776 479.574,80.4109 479.5,78.5C 479.833,78.5 480.167,78.5 480.5,78.5C 481.289,78.7828 481.956,79.2828 482.5,80C 493.833,80.6667 505.167,80.6667 516.5,80C 519.041,78.1516 520.041,75.6516 519.5,72.5C 519.5,72.1667 519.5,71.8333 519.5,71.5 Z"/></g>
<g><path style="opacity:1" fill="#fdfdfe" d="M 289.5,90.5 C 291.214,91.7384 293.214,92.405 295.5,92.5C 298.436,93.4058 301.436,94.0725 304.5,94.5C 308.522,96.7339 312.856,98.4005 317.5,99.5C 380.519,124.516 422.519,169.183 443.5,233.5C 444.054,236.746 445.054,239.746 446.5,242.5C 448.541,251.872 450.375,261.205 452,270.5C 452.5,287.163 452.667,303.83 452.5,320.5C 450.825,323.507 450.159,326.84 450.5,330.5C 450.471,334.64 449.804,338.64 448.5,342.5C 447.076,344.515 446.41,346.848 446.5,349.5C 446.5,350.167 446.5,350.833 446.5,351.5C 444.926,353.102 444.259,355.102 444.5,357.5C 443.076,359.515 442.41,361.848 442.5,364.5C 437.737,376.698 432.404,388.698 426.5,400.5C 424.75,401.659 423.75,403.326 423.5,405.5C 422.094,405.973 421.427,406.973 421.5,408.5C 419.75,409.659 418.75,411.326 418.5,413.5C 414.197,418.647 410.03,423.98 406,429.5C 405.278,432.261 405.445,434.927 406.5,437.5C 406.5,438.167 406.5,438.833 406.5,439.5C 405.075,440.922 404.075,442.589 403.5,444.5C 403.167,444.5 402.833,444.5 402.5,444.5C 400.074,442.782 397.407,442.282 394.5,443C 383.551,454.289 371.717,464.456 359,473.5C 358.505,475.473 358.338,477.473 358.5,479.5C 358.5,480.5 358.5,481.5 358.5,482.5C 356.461,483.672 355.128,485.338 354.5,487.5C 354.975,484.687 353.975,482.687 351.5,481.5C 349.372,480.371 347.039,480.204 344.5,481C 338.741,483.879 333.075,486.713 327.5,489.5C 325.597,489.796 323.93,490.463 322.5,491.5C 291.782,504.063 259.782,509.063 226.5,506.5C 221.731,505.111 216.731,504.444 211.5,504.5C 203.131,504.07 195.131,502.403 187.5,499.5C 183.498,497.39 179.165,496.057 174.5,495.5C 172.214,495.405 170.214,494.738 168.5,493.5C 166.824,491.166 164.491,490.166 161.5,490.5C 134.215,479.362 110.549,463.028 90.5,441.5C 89.1667,439.5 87.5,437.833 85.5,436.5C 75.0139,424.85 66.0139,412.184 58.5,398.5C 58.573,396.973 57.9063,395.973 56.5,395.5C 44.8412,372.894 37.1745,348.894 33.5,323.5C 32.677,309.183 32.3436,294.849 32.5,280.5C 33.1852,263.408 36.1852,246.741 41.5,230.5C 43.8337,228.824 44.8337,226.491 44.5,223.5C 47.4271,213.652 51.4271,204.319 56.5,195.5C 57.9063,195.027 58.573,194.027 58.5,192.5C 59.3382,192.158 59.6716,191.492 59.5,190.5C 60.9063,190.027 61.573,189.027 61.5,187.5C 66.2774,178.275 72.2774,169.942 79.5,162.5C 81.914,161.089 83.5806,159.089 84.5,156.5C 84.8333,155.5 85.5,154.833 86.5,154.5C 89.2427,152.761 91.2427,150.427 92.5,147.5C 113.188,125.499 137.855,109.499 166.5,99.5C 168.153,99.3404 169.486,98.6737 170.5,97.5C 176.166,96.6096 181.5,94.943 186.5,92.5C 187.568,91.5655 188.901,91.2322 190.5,91.5C 198.115,91.0888 205.449,89.7554 212.5,87.5C 238.328,84.1453 263.995,85.1453 289.5,90.5 Z"/></g>
<g><path style="opacity:1" fill="#bdcff7" d="M 212.5,87.5 C 205.449,89.7554 198.115,91.0888 190.5,91.5C 197.508,89.0337 204.842,87.7003 212.5,87.5 Z"/></g>
<g><path style="opacity:1" fill="#7ea1f0" d="M 289.5,90.5 C 291.898,90.2594 293.898,90.9261 295.5,92.5C 293.214,92.405 291.214,91.7384 289.5,90.5 Z"/></g>
<g><path style="opacity:0.557" fill="#8ba9ef" d="M 152.5,91.5 C 153.167,91.5 153.833,91.5 154.5,91.5C 149.232,94.134 143.899,96.8007 138.5,99.5C 138.5,98.8333 138.5,98.1667 138.5,97.5C 142.941,94.9455 147.608,92.9455 152.5,91.5 Z"/></g>
<g><path style="opacity:0.541" fill="#90a6e0" d="M 329.5,90.5 C 338.901,94.0342 347.901,98.3675 356.5,103.5C 356.5,104.167 356.5,104.833 356.5,105.5C 348.472,100.819 340.139,96.6527 331.5,93C 330.619,92.2917 329.953,91.4584 329.5,90.5 Z"/></g>
<g><path style="opacity:0.337" fill="#c7cfe3" d="M 472.5,124.5 C 470.11,129.683 466.443,130.683 461.5,127.5C 460.416,126.335 459.583,125.002 459,123.5C 458.333,113.167 458.333,102.833 459,92.5C 462.712,84.1398 467.379,83.4731 473,90.5C 473.826,102.008 473.659,113.341 472.5,124.5 Z"/></g>
<g><path style="opacity:0.964" fill="#7aa6fd" d="M 472.5,124.5 C 469.778,127.514 466.444,128.18 462.5,126.5C 461.749,125.624 461.249,124.624 461,123.5C 460.333,112.833 460.333,102.167 461,91.5C 464.53,86.2587 468.197,86.2587 472,91.5C 472.5,102.495 472.667,113.495 472.5,124.5 Z"/></g>
<g><path style="opacity:1" fill="#a1bbf4" d="M 186.5,92.5 C 181.5,94.943 176.166,96.6096 170.5,97.5C 175.5,95.057 180.834,93.3904 186.5,92.5 Z"/></g>
<g><path style="opacity:1" fill="#7399ef" d="M 304.5,94.5 C 308.553,95.3495 312.553,96.5162 316.5,98C 317.056,98.3826 317.389,98.8826 317.5,99.5C 312.856,98.4005 308.522,96.7339 304.5,94.5 Z"/></g>
<g><path style="opacity:1" fill="#91b1f2" d="M 170.5,97.5 C 169.486,98.6737 168.153,99.3404 166.5,99.5C 167.287,97.8958 168.62,97.2291 170.5,97.5 Z"/></g>
<g><path style="opacity:1" fill="#e7effd" d="M 292.5,254.5 C 291.075,255.922 290.075,257.589 289.5,259.5C 281.264,268.973 273.264,278.64 265.5,288.5C 263.413,289.585 262.08,291.251 261.5,293.5C 250.078,307.321 238.412,320.988 226.5,334.5C 208.35,318.184 190.35,301.684 172.5,285C 169.233,282.87 165.9,281.037 162.5,279.5C 160.866,278.839 159.033,278.506 157,278.5C 154.134,278.3 151.634,278.967 149.5,280.5C 144.045,283.291 140.378,287.624 138.5,293.5C 137.839,295.134 137.506,296.967 137.5,299C 137.3,301.866 137.967,304.366 139.5,306.5C 142.87,312.379 147.203,317.545 152.5,322C 173.185,340.355 193.519,359.021 213.5,378C 223.718,384.178 233.718,383.845 243.5,377C 259.303,358.522 274.97,340.022 290.5,321.5C 292.587,320.415 293.92,318.749 294.5,316.5C 298.622,314.315 301.289,310.982 302.5,306.5C 308.82,298.183 315.486,290.183 322.5,282.5C 323.833,281.5 325.167,280.5 326.5,279.5C 353.92,295.471 383.587,304.971 415.5,308C 423.167,308.333 430.833,308.667 438.5,309C 439.127,310.738 439.46,312.571 439.5,314.5C 429.068,395.083 386.402,450.917 311.5,482C 241.838,505.079 177.838,494.912 119.5,451.5C 69.42,409.168 44.42,355.001 44.5,289C 48.7828,216.072 81.7828,160.406 143.5,122C 164.936,109.739 187.936,101.906 212.5,98.5C 216.006,145.54 232.173,187.54 261,224.5C 270.136,234.637 279.636,244.47 289.5,254C 290.448,254.483 291.448,254.649 292.5,254.5 Z"/></g>
<g><path style="opacity:0.161" fill="#a0b3d9" d="M 138.5,97.5 C 138.5,98.1667 138.5,98.8333 138.5,99.5C 122.484,107.509 107.817,117.509 94.5,129.5C 93.8333,129.5 93.1667,129.5 92.5,129.5C 106.079,116.372 121.413,105.705 138.5,97.5 Z"/></g>
<g><path style="opacity:1" fill="#79a6fe" d="M 105.5,174.5 C 103.704,175.793 102.037,177.293 100.5,179C 98.5273,179.495 96.5273,179.662 94.5,179.5C 92.568,176.823 92.068,173.823 93,170.5C 114.482,145.174 140.648,126.341 171.5,114C 178.358,112.209 181.525,114.709 181,121.5C 180.167,122.333 179.333,123.167 178.5,124C 149.949,134.715 125.616,151.548 105.5,174.5 Z"/></g>
<g><path style="opacity:0.318" fill="#b1c1e3" d="M 356.5,103.5 C 380.115,116.99 400.115,134.657 416.5,156.5C 406.032,145.2 395.032,134.366 383.5,124C 374.818,117.329 365.818,111.163 356.5,105.5C 356.5,104.833 356.5,104.167 356.5,103.5 Z"/></g>
<g><path style="opacity:0.22" fill="#88a0d9" d="M 92.5,129.5 C 93.1667,129.5 93.8333,129.5 94.5,129.5C 86.1667,137.167 78.1667,145.167 70.5,153.5C 70.1667,153.5 69.8333,153.5 69.5,153.5C 76.4654,144.867 84.1321,136.867 92.5,129.5 Z"/></g>
<g><path style="opacity:1" fill="#bdcff7" d="M 92.5,147.5 C 91.2427,150.427 89.2427,152.761 86.5,154.5C 87.7573,151.573 89.7573,149.239 92.5,147.5 Z"/></g>
<g><path style="opacity:0.2" fill="#acbcdf" d="M 69.5,153.5 C 69.8333,153.5 70.1667,153.5 70.5,153.5C 68.0796,158.391 64.7463,162.391 60.5,165.5C 62.7376,160.929 65.7376,156.929 69.5,153.5 Z"/></g>
<g><path style="opacity:1" fill="#c2d3f8" d="M 84.5,156.5 C 83.5806,159.089 81.914,161.089 79.5,162.5C 80.4194,159.911 82.086,157.911 84.5,156.5 Z"/></g>
<g><path style="opacity:0.212" fill="#c5d0ec" d="M 416.5,156.5 C 418.587,157.585 419.92,159.251 420.5,161.5C 418.413,160.415 417.08,158.749 416.5,156.5 Z"/></g>
<g><path style="opacity:0.224" fill="#b7c6ea" d="M 420.5,161.5 C 421.906,161.973 422.573,162.973 422.5,164.5C 421.094,164.027 420.427,163.027 420.5,161.5 Z"/></g>
<g><path style="opacity:0.514" fill="#97aee2" d="M 60.5,165.5 C 59.3791,169.474 57.5457,173.14 55,176.5C 54.3292,177.252 53.4959,177.586 52.5,177.5C 54.1775,172.803 56.8442,168.803 60.5,165.5 Z"/></g>
<g><path style="opacity:1" fill="#bed3fe" d="M 105.5,174.5 C 103.556,180.189 99.8896,181.856 94.5,179.5C 96.5273,179.662 98.5273,179.495 100.5,179C 102.037,177.293 103.704,175.793 105.5,174.5 Z"/></g>
<g><path style="opacity:0.145" fill="#cddaef" d="M 52.5,177.5 C 52.5,178.167 52.5,178.833 52.5,179.5C 51.8333,179.833 51.1667,180.167 50.5,180.5C 50.427,178.973 51.0937,177.973 52.5,177.5 Z"/></g>
<g><path style="opacity:0.51" fill="#769aef" d="M 52.5,179.5 C 51.1932,182.78 49.5265,185.78 47.5,188.5C 47.8333,187.167 48.1667,185.833 48.5,184.5C 48.9887,183.005 49.6554,181.671 50.5,180.5C 51.1667,180.167 51.8333,179.833 52.5,179.5 Z"/></g>
<g><path style="opacity:0.027" fill="#a9b4d0" d="M 422.5,164.5 C 428.404,170.631 433.071,177.631 436.5,185.5C 435.833,185.167 435.167,184.833 434.5,184.5C 430.871,177.554 426.871,170.887 422.5,164.5 Z"/></g>
<g><path style="opacity:1" fill="#79a6fe" d="M 82.5,186.5 C 88.4738,186.048 90.9738,188.715 90,194.5C 83.6843,203.114 78.351,212.448 74,222.5C 70.3389,225.406 67.0055,225.073 64,221.5C 63.3333,219.833 63.3333,218.167 64,216.5C 68.4056,206.684 73.5722,197.35 79.5,188.5C 80.6016,187.824 81.6016,187.158 82.5,186.5 Z"/></g>
<g><path style="opacity:0.204" fill="#8ca7e4" d="M 434.5,184.5 C 435.167,184.833 435.833,185.167 436.5,185.5C 444.029,196.897 449.696,209.23 453.5,222.5C 447.574,209.784 441.241,197.117 434.5,184.5 Z"/></g>
<g><path style="opacity:1" fill="#8faef2" d="M 61.5,187.5 C 61.573,189.027 60.9063,190.027 59.5,190.5C 59.427,188.973 60.0937,187.973 61.5,187.5 Z"/></g>
<g><path style="opacity:1" fill="#80a4f0" d="M 58.5,192.5 C 58.573,194.027 57.9063,195.027 56.5,195.5C 56.427,193.973 57.0937,192.973 58.5,192.5 Z"/></g>
<g><path style="opacity:0.259" fill="#9cb0de" d="M 48.5,184.5 C 48.1667,185.833 47.8333,187.167 47.5,188.5C 36.281,208.485 28.6144,229.819 24.5,252.5C 23.8333,253.5 23.1667,254.5 22.5,255.5C 26.5029,230.821 34.5029,207.487 46.5,185.5C 46.9569,184.702 47.6236,184.369 48.5,184.5 Z"/></g>
<g><path style="opacity:1" fill="#2968e7" d="M 329.5,273.5 C 327.738,274.262 326.738,275.596 326.5,277.5C 324.413,278.585 323.08,280.251 322.5,282.5C 315.486,290.183 308.82,298.183 302.5,306.5C 299.46,309.539 296.794,312.873 294.5,316.5C 292.413,317.585 291.08,319.251 290.5,321.5C 274.97,340.022 259.303,358.522 243.5,377C 233.718,383.845 223.718,384.178 213.5,378C 193.519,359.021 173.185,340.355 152.5,322C 147.203,317.545 142.87,312.379 139.5,306.5C 138.705,302.215 138.372,297.881 138.5,293.5C 140.378,287.624 144.045,283.291 149.5,280.5C 153.798,279.8 158.131,279.467 162.5,279.5C 165.9,281.037 169.233,282.87 172.5,285C 190.35,301.684 208.35,318.184 226.5,334.5C 238.412,320.988 250.078,307.321 261.5,293.5C 263.587,292.415 264.92,290.749 265.5,288.5C 273.264,278.64 281.264,268.973 289.5,259.5C 291.587,258.415 292.92,256.749 293.5,254.5C 295.587,253.415 296.92,251.749 297.5,249.5C 297.5,248.833 297.833,248.5 298.5,248.5C 300.587,247.415 301.92,245.749 302.5,243.5C 306.577,236.587 311.91,230.753 318.5,226C 332.135,222.088 341.635,226.588 347,239.5C 348.195,246.581 346.529,252.914 342,258.5C 337.622,263.373 333.455,268.373 329.5,273.5 Z"/></g>
<g><path style="opacity:1" fill="#b7caf7" d="M 44.5,223.5 C 44.8337,226.491 43.8337,228.824 41.5,230.5C 41.9348,227.843 42.9348,225.509 44.5,223.5 Z"/></g>
<g><path style="opacity:1" fill="#769cef" d="M 443.5,233.5 C 445.554,236.008 446.554,239.008 446.5,242.5C 445.054,239.746 444.054,236.746 443.5,233.5 Z"/></g>
<g><path style="opacity:1" fill="#f9fbfe" d="M 335.5,247.5 C 334.094,247.973 333.427,248.973 333.5,250.5C 324.152,261.185 315.152,272.185 306.5,283.5C 304.413,284.585 303.08,286.251 302.5,288.5C 298.692,292.122 295.359,296.122 292.5,300.5C 290.413,301.585 289.08,303.251 288.5,305.5C 281.486,313.183 274.82,321.183 268.5,329.5C 266.413,330.585 265.08,332.251 264.5,334.5C 262.413,335.585 261.08,337.251 260.5,339.5C 254.198,346.643 248.031,353.976 242,361.5C 239.228,364.783 236.061,367.45 232.5,369.5C 228.466,369.495 224.466,369.162 220.5,368.5C 200.199,350.2 180.199,331.534 160.5,312.5C 158.761,309.757 156.427,307.757 153.5,306.5C 151.75,305.341 150.75,303.674 150.5,301.5C 149.968,295.031 152.968,291.697 159.5,291.5C 160.922,291.709 162.255,292.209 163.5,293C 184.384,313.053 205.717,332.553 227.5,351.5C 228.852,350.476 230.185,349.476 231.5,348.5C 233.587,347.415 234.92,345.749 235.5,343.5C 237.587,342.415 238.92,340.749 239.5,338.5C 247.272,328.609 255.272,318.943 263.5,309.5C 265.587,308.415 266.92,306.749 267.5,304.5C 269.262,303.738 270.262,302.404 270.5,300.5C 276.177,293.793 281.843,287.127 287.5,280.5C 289.587,279.415 290.92,277.749 291.5,275.5C 293.587,274.415 294.92,272.749 295.5,270.5C 296.906,270.027 297.573,269.027 297.5,267.5C 298.167,266.167 299.167,265.167 300.5,264.5C 302.587,263.415 303.92,261.749 304.5,259.5C 310.286,251.875 316.286,244.375 322.5,237C 331.511,234.851 335.844,238.351 335.5,247.5 Z"/></g>
<g><path style="opacity:1" fill="#6891ed" d="M 302.5,243.5 C 301.92,245.749 300.587,247.415 298.5,248.5C 299.08,246.251 300.413,244.585 302.5,243.5 Z"/></g>
<g><path style="opacity:1" fill="#799ff0" d="M 335.5,247.5 C 335.573,249.027 334.906,250.027 333.5,250.5C 333.427,248.973 334.094,247.973 335.5,247.5 Z"/></g>
<g><path style="opacity:1" fill="#779def" d="M 297.5,249.5 C 296.92,251.749 295.587,253.415 293.5,254.5C 294.08,252.251 295.413,250.585 297.5,249.5 Z"/></g>
<g><path style="opacity:1" fill="#628eed" d="M 292.5,254.5 C 292.833,254.5 293.167,254.5 293.5,254.5C 292.92,256.749 291.587,258.415 289.5,259.5C 290.075,257.589 291.075,255.922 292.5,254.5 Z"/></g>
<g><path style="opacity:0.51" fill="#6392ed" d="M 24.5,252.5 C 24.5905,255.152 23.9238,257.485 22.5,259.5C 22.5,258.167 22.5,256.833 22.5,255.5C 23.1667,254.5 23.8333,253.5 24.5,252.5 Z"/></g>
<g><path style="opacity:1" fill="#b8cbf7" d="M 304.5,259.5 C 303.92,261.749 302.587,263.415 300.5,264.5C 301.08,262.251 302.413,260.585 304.5,259.5 Z"/></g>
<g><path style="opacity:0.402" fill="#bbc9e5" d="M 22.5,255.5 C 22.5,256.833 22.5,258.167 22.5,259.5C 22.5,261.167 22.5,262.833 22.5,264.5C 21.0285,268.919 20.3618,273.586 20.5,278.5C 20.5,280.167 20.5,281.833 20.5,283.5C 19.5067,292.318 19.1734,301.318 19.5,310.5C 17.7271,292.031 18.7271,273.697 22.5,255.5 Z"/></g>
<g><path style="opacity:1" fill="#9eb9f4" d="M 297.5,267.5 C 297.573,269.027 296.906,270.027 295.5,270.5C 295.427,268.973 296.094,267.973 297.5,267.5 Z"/></g>
<g><path style="opacity:1" fill="#b3c8f6" d="M 295.5,270.5 C 294.92,272.749 293.587,274.415 291.5,275.5C 292.08,273.251 293.413,271.585 295.5,270.5 Z"/></g>
<g><path style="opacity:1" fill="#a6bff4" d="M 329.5,273.5 C 329.262,275.404 328.262,276.738 326.5,277.5C 326.738,275.596 327.738,274.262 329.5,273.5 Z"/></g>
<g><path style="opacity:0.537" fill="#4e82eb" d="M 22.5,264.5 C 22.7709,269.434 22.1042,274.1 20.5,278.5C 20.3618,273.586 21.0285,268.919 22.5,264.5 Z"/></g>
<g><path style="opacity:1" fill="#88acf2" d="M 162.5,279.5 C 158.131,279.467 153.798,279.8 149.5,280.5C 151.634,278.967 154.134,278.3 157,278.5C 159.033,278.506 160.866,278.839 162.5,279.5 Z"/></g>
<g><path style="opacity:1" fill="#bdcff7" d="M 291.5,275.5 C 290.92,277.749 289.587,279.415 287.5,280.5C 288.08,278.251 289.413,276.585 291.5,275.5 Z"/></g>
<g><path style="opacity:1" fill="#a5bff5" d="M 326.5,277.5 C 326.5,278.167 326.5,278.833 326.5,279.5C 325.167,280.5 323.833,281.5 322.5,282.5C 323.08,280.251 324.413,278.585 326.5,277.5 Z"/></g>
<g><path style="opacity:1" fill="#648ded" d="M 306.5,283.5 C 305.92,285.749 304.587,287.415 302.5,288.5C 303.08,286.251 304.413,284.585 306.5,283.5 Z"/></g>
<g><path style="opacity:1" fill="#6791ee" d="M 265.5,288.5 C 264.92,290.749 263.587,292.415 261.5,293.5C 262.08,291.251 263.413,289.585 265.5,288.5 Z"/></g>
<g><path style="opacity:1" fill="#6c97ef" d="M 138.5,293.5 C 138.372,297.881 138.705,302.215 139.5,306.5C 137.967,304.366 137.3,301.866 137.5,299C 137.506,296.967 137.839,295.134 138.5,293.5 Z"/></g>
<g><path style="opacity:1" fill="#bed0f7" d="M 159.5,291.5 C 152.968,291.697 149.968,295.031 150.5,301.5C 148.355,296.788 149.689,293.288 154.5,291C 156.387,290.22 158.054,290.387 159.5,291.5 Z"/></g>
<g><path style="opacity:1" fill="#a6bef4" d="M 270.5,300.5 C 270.262,302.404 269.262,303.738 267.5,304.5C 267.738,302.596 268.738,301.262 270.5,300.5 Z"/></g>
<g><path style="opacity:1" fill="#618ded" d="M 292.5,300.5 C 291.92,302.749 290.587,304.415 288.5,305.5C 289.08,303.251 290.413,301.585 292.5,300.5 Z"/></g>
<g><path style="opacity:1" fill="#acc3f5" d="M 153.5,306.5 C 156.427,307.757 158.761,309.757 160.5,312.5C 157.573,311.243 155.239,309.243 153.5,306.5 Z"/></g>
<g><path style="opacity:1" fill="#aec5f6" d="M 267.5,304.5 C 266.92,306.749 265.587,308.415 263.5,309.5C 264.08,307.251 265.413,305.585 267.5,304.5 Z"/></g>
<g><path style="opacity:1" fill="#b2c8f7" d="M 302.5,306.5 C 301.289,310.982 298.622,314.315 294.5,316.5C 296.794,312.873 299.46,309.539 302.5,306.5 Z"/></g>
<g><path style="opacity:0.306" fill="#b0bcd9" d="M 453.5,222.5 C 458.037,232.291 461.204,242.625 463,253.5C 470.04,290.986 468.04,327.986 457,364.5C 455.768,368.061 454.268,371.394 452.5,374.5C 452.5,373.5 452.5,372.5 452.5,371.5C 455.109,364.758 457.275,357.758 459,350.5C 467.891,307.249 466.058,264.583 453.5,222.5 Z"/></g>
<g><path style="opacity:1" fill="#acc4f6" d="M 294.5,316.5 C 293.92,318.749 292.587,320.415 290.5,321.5C 291.08,319.251 292.413,317.585 294.5,316.5 Z"/></g>
<g><path style="opacity:0.569" fill="#87a4ef" d="M 20.5,283.5 C 20.037,306.159 22.3703,328.493 27.5,350.5C 26.8333,350.5 26.1667,350.5 25.5,350.5C 21.7885,337.552 19.7885,324.218 19.5,310.5C 19.1734,301.318 19.5067,292.318 20.5,283.5 Z"/></g>
<g><path style="opacity:1" fill="#83a4f1" d="M 32.5,280.5 C 32.3436,294.849 32.677,309.183 33.5,323.5C 31.9611,315.392 31.2945,307.059 31.5,298.5C 31.5005,292.324 31.8338,286.324 32.5,280.5 Z"/></g>
<g><path style="opacity:1" fill="#a1bbf4" d="M 452.5,320.5 C 452.451,324.078 451.785,327.411 450.5,330.5C 450.159,326.84 450.825,323.507 452.5,320.5 Z"/></g>
<g><path style="opacity:1" fill="#6a93ee" d="M 268.5,329.5 C 267.92,331.749 266.587,333.415 264.5,334.5C 265.08,332.251 266.413,330.585 268.5,329.5 Z"/></g>
<g><path style="opacity:1" fill="#6892ed" d="M 264.5,334.5 C 263.92,336.749 262.587,338.415 260.5,339.5C 261.08,337.251 262.413,335.585 264.5,334.5 Z"/></g>
<g><path style="opacity:1" fill="#b1c7f5" d="M 239.5,338.5 C 238.92,340.749 237.587,342.415 235.5,343.5C 236.08,341.251 237.413,339.585 239.5,338.5 Z"/></g>
<g><path style="opacity:1" fill="#b7cbf6" d="M 235.5,343.5 C 234.92,345.749 233.587,347.415 231.5,348.5C 232.08,346.251 233.413,344.585 235.5,343.5 Z"/></g>
<g><path style="opacity:1" fill="#96b5f3" d="M 448.5,342.5 C 448.59,345.152 447.924,347.485 446.5,349.5C 446.41,346.848 447.076,344.515 448.5,342.5 Z"/></g>
<g><path style="opacity:1" fill="#7ca1f0" d="M 446.5,351.5 C 446.741,353.898 446.074,355.898 444.5,357.5C 444.259,355.102 444.926,353.102 446.5,351.5 Z"/></g>
<g><path style="opacity:1" fill="#7ea2f0" d="M 444.5,357.5 C 444.59,360.152 443.924,362.485 442.5,364.5C 442.41,361.848 443.076,359.515 444.5,357.5 Z"/></g>
<g><path style="opacity:1" fill="#a3bdf4" d="M 220.5,368.5 C 224.466,369.162 228.466,369.495 232.5,369.5C 231.036,370.16 229.369,370.493 227.5,370.5C 224.795,370.684 222.462,370.017 220.5,368.5 Z"/></g>
<g><path style="opacity:0.106" fill="#a0b3de" d="M 25.5,350.5 C 26.1667,350.5 26.8333,350.5 27.5,350.5C 36.6484,386.803 53.6484,418.803 78.5,446.5C 77.8333,446.5 77.1667,446.5 76.5,446.5C 51.1473,419.138 34.1473,387.138 25.5,350.5 Z"/></g>
<g><path style="opacity:0.545" fill="#7f9ddf" d="M 452.5,371.5 C 452.5,372.5 452.5,373.5 452.5,374.5C 448.637,385.224 443.97,395.558 438.5,405.5C 438.167,405.5 437.833,405.5 437.5,405.5C 442.518,394.09 447.518,382.756 452.5,371.5 Z"/></g>
<g><path style="opacity:1" fill="#7da1f0" d="M 56.5,395.5 C 57.9063,395.973 58.573,396.973 58.5,398.5C 57.0937,398.027 56.427,397.027 56.5,395.5 Z"/></g>
<g><path style="opacity:1" fill="#688ded" d="M 426.5,400.5 C 426.408,402.848 425.408,404.514 423.5,405.5C 423.75,403.326 424.75,401.659 426.5,400.5 Z"/></g>
<g><path style="opacity:1" fill="#87aaf1" d="M 423.5,405.5 C 423.573,407.027 422.906,408.027 421.5,408.5C 421.427,406.973 422.094,405.973 423.5,405.5 Z"/></g>
<g><path style="opacity:1" fill="#678eed" d="M 421.5,408.5 C 421.408,410.848 420.408,412.514 418.5,413.5C 418.75,411.326 419.75,409.659 421.5,408.5 Z"/></g>
<g><path style="opacity:0.082" fill="#afbede" d="M 437.5,405.5 C 437.833,405.5 438.167,405.5 438.5,405.5C 434.549,415.092 428.882,423.425 421.5,430.5C 421.5,430.167 421.5,429.833 421.5,429.5C 426.846,421.463 432.18,413.463 437.5,405.5 Z"/></g>
<g><path style="opacity:0.239" fill="#96b1f2" d="M 421.5,429.5 C 421.5,429.833 421.5,430.167 421.5,430.5C 420.737,432.368 419.737,434.035 418.5,435.5C 417.5,436.167 416.5,436.833 415.5,437.5C 417.037,434.398 419.037,431.732 421.5,429.5 Z"/></g>
<g><path style="opacity:1" fill="#7196ee" d="M 85.5,436.5 C 87.5,437.833 89.1667,439.5 90.5,441.5C 87.8333,440.833 86.1667,439.167 85.5,436.5 Z"/></g>
<g><path style="opacity:0.239" fill="#b5bed2" d="M 418.5,435.5 C 416.025,441.404 412.025,442.737 406.5,439.5C 406.5,438.833 406.5,438.167 406.5,437.5C 409.5,440.167 412.5,440.167 415.5,437.5C 416.5,436.833 417.5,436.167 418.5,435.5 Z"/></g>
<g><path style="opacity:0.997" fill="#2a68e7" d="M 402.5,444.5 C 403.98,447.255 403.813,449.922 402,452.5C 396.289,458.713 390.123,464.38 383.5,469.5C 378.218,474.146 372.552,478.312 366.5,482C 363.029,483.163 360.362,482.33 358.5,479.5C 358.338,477.473 358.505,475.473 359,473.5C 371.717,464.456 383.551,454.289 394.5,443C 397.407,442.282 400.074,442.782 402.5,444.5 Z"/></g>
<g><path style="opacity:0.271" fill="#cdd6e6" d="M 76.5,446.5 C 77.1667,446.5 77.8333,446.5 78.5,446.5C 84.8333,453.5 91.5,460.167 98.5,466.5C 90.2635,460.935 82.9302,454.268 76.5,446.5 Z"/></g>
<g><path style="opacity:0.118" fill="#bfc9df" d="M 402.5,444.5 C 402.833,444.5 403.167,444.5 403.5,444.5C 406.113,447.883 405.947,451.217 403,454.5C 396.609,460.398 390.109,466.065 383.5,471.5C 383.5,470.833 383.5,470.167 383.5,469.5C 390.123,464.38 396.289,458.713 402,452.5C 403.813,449.922 403.98,447.255 402.5,444.5 Z"/></g>
<g><path style="opacity:0.035" fill="#a6b5d8" d="M 98.5,466.5 C 108.927,474.557 119.927,481.89 131.5,488.5C 132.298,488.957 132.631,489.624 132.5,490.5C 119.775,484.437 108.441,476.437 98.5,466.5 Z"/></g>
<g><path style="opacity:0.357" fill="#a0b2d9" d="M 383.5,469.5 C 383.5,470.167 383.5,470.833 383.5,471.5C 378.612,476.622 372.946,480.789 366.5,484C 363.593,484.718 360.926,484.218 358.5,482.5C 358.5,481.5 358.5,480.5 358.5,479.5C 360.362,482.33 363.029,483.163 366.5,482C 372.552,478.312 378.218,474.146 383.5,469.5 Z"/></g>
<g><path style="opacity:0.318" fill="#80a2ea" d="M 351.5,481.5 C 353.975,482.687 354.975,484.687 354.5,487.5C 354.443,488.609 354.11,489.609 353.5,490.5C 352.833,490.5 352.167,490.5 351.5,490.5C 352.289,489.085 352.956,487.585 353.5,486C 352.586,484.594 351.92,483.094 351.5,481.5 Z"/></g>
<g><path style="opacity:1" fill="#c0d1f8" d="M 161.5,490.5 C 164.491,490.166 166.824,491.166 168.5,493.5C 165.843,493.065 163.509,492.065 161.5,490.5 Z"/></g>
<g><path style="opacity:1" fill="#769cef" d="M 327.5,489.5 C 326.365,491.213 324.698,491.88 322.5,491.5C 323.93,490.463 325.597,489.796 327.5,489.5 Z"/></g>
<g><path style="opacity:0.133" fill="#ccd7f1" d="M 132.5,490.5 C 135.034,490.259 136.7,491.259 137.5,493.5C 135.326,493.25 133.659,492.25 132.5,490.5 Z"/></g>
<g><path style="opacity:0.059" fill="#bdcae9" d="M 351.5,490.5 C 352.167,490.5 352.833,490.5 353.5,490.5C 352.341,492.25 350.674,493.25 348.5,493.5C 348.81,491.856 349.81,490.856 351.5,490.5 Z"/></g>
<g><path style="opacity:0.616" fill="#6a91ea" d="M 348.5,493.5 C 348.158,494.338 347.492,494.672 346.5,494.5C 342.931,496.119 339.264,497.452 335.5,498.5C 339.255,495.461 343.588,493.794 348.5,493.5 Z"/></g>
<g><path style="opacity:1" fill="#b5c9f6" d="M 174.5,495.5 C 179.165,496.057 183.498,497.39 187.5,499.5C 182.835,498.943 178.502,497.61 174.5,495.5 Z"/></g>
<g><path style="opacity:0.024" fill="#a4adc7" d="M 346.5,494.5 C 345.657,496.173 344.324,497.34 342.5,498C 333.701,502.068 324.701,505.568 315.5,508.5C 315.5,507.833 315.5,507.167 315.5,506.5C 322.482,504.4 329.148,501.733 335.5,498.5C 339.264,497.452 342.931,496.119 346.5,494.5 Z"/></g>
<g><path style="opacity:0.071" fill="#a9b8d6" d="M 137.5,493.5 C 138.873,493.343 140.207,493.51 141.5,494C 157.194,502.622 173.86,508.789 191.5,512.5C 191.833,513.167 192.167,513.833 192.5,514.5C 172.919,510.423 154.586,503.423 137.5,493.5 Z"/></g>
<g><path style="opacity:1" fill="#afc5f6" d="M 211.5,504.5 C 216.731,504.444 221.731,505.111 226.5,506.5C 221.269,506.556 216.269,505.889 211.5,504.5 Z"/></g>
<g><path style="opacity:0.278" fill="#a1b5e3" d="M 315.5,506.5 C 315.5,507.167 315.5,507.833 315.5,508.5C 300.29,513.885 284.623,517.219 268.5,518.5C 265.833,518.5 263.167,518.5 260.5,518.5C 279.175,516.532 297.508,512.532 315.5,506.5 Z"/></g>
<g><path style="opacity:0.482" fill="#9db7ee" d="M 191.5,512.5 C 212.826,517.412 234.492,519.412 256.5,518.5C 243.658,519.672 230.658,519.672 217.5,518.5C 209.036,517.923 200.703,516.589 192.5,514.5C 192.167,513.833 191.833,513.167 191.5,512.5 Z"/></g>
<g><path style="opacity:0.129" fill="#f0f1f4" d="M 217.5,518.5 C 230.658,519.672 243.658,519.672 256.5,518.5C 257.833,518.5 259.167,518.5 260.5,518.5C 263.167,518.5 265.833,518.5 268.5,518.5C 267.391,519.29 266.058,519.79 264.5,520C 250.167,520.667 235.833,520.667 221.5,520C 219.942,519.79 218.609,519.29 217.5,518.5 Z"/></g>
<g><path style="opacity:0.314" fill="#bbcbe5" d="M 72.5,505.5 C 77.1939,504.456 80.3606,506.123 82,510.5C 82.6667,518.5 82.6667,526.5 82,534.5C 77.0034,541.266 72.3368,540.933 68,533.5C 67.3333,526.167 67.3333,518.833 68,511.5C 68.3248,508.478 69.8248,506.478 72.5,505.5 Z"/></g>
<g><path style="opacity:0.966" fill="#76a4fd" d="M 71.5,507.5 C 74.6852,507.02 77.5185,507.686 80,509.5C 80.6667,517.833 80.6667,526.167 80,534.5C 76.6667,538.5 73.3333,538.5 70,534.5C 69.3333,526.5 69.3333,518.5 70,510.5C 70.5133,509.473 71.0133,508.473 71.5,507.5 Z"/></g>
<g><path style="opacity:0.101" fill="#f8f9fd" d="M 63.5,547.5 C 62.8333,547.5 62.1667,547.5 61.5,547.5C 60.5707,546.685 59.5707,545.852 58.5,545C 51.1742,544.5 43.8409,544.334 36.5,544.5C 36.5,544.167 36.5,543.833 36.5,543.5C 43.3209,542.345 50.3209,542.179 57.5,543C 59.7472,544.277 61.7472,545.777 63.5,547.5 Z"/></g>
<g><path style="opacity:0.099" fill="#f6f7fb" d="M 114.5,543.5 C 107.011,544.329 99.3443,544.829 91.5,545C 90.944,545.383 90.6107,545.883 90.5,546.5C 89.8333,546.5 89.1667,546.5 88.5,546.5C 88.9443,544.887 89.9443,543.72 91.5,543C 99.246,542.202 106.913,542.369 114.5,543.5 Z"/></g>
<g><path style="opacity:0.584" fill="#92b6fa" d="M 114.5,543.5 C 116.341,544.402 117.674,545.736 118.5,547.5C 118.5,548.167 118.5,548.833 118.5,549.5C 117.684,547.856 116.35,546.69 114.5,546C 106.452,545.23 98.4515,545.397 90.5,546.5C 90.6107,545.883 90.944,545.383 91.5,545C 99.3443,544.829 107.011,544.329 114.5,543.5 Z"/></g>
<g><path style="opacity:0.969" fill="#79a6fd" d="M 36.5,544.5 C 43.8409,544.334 51.1742,544.5 58.5,545C 59.5707,545.852 60.5707,546.685 61.5,547.5C 61.5,550.167 61.5,552.833 61.5,555.5C 61.1583,556.338 60.4916,556.672 59.5,556.5C 51.1667,556.5 42.8333,556.5 34.5,556.5C 32.1317,552.948 31.9651,549.281 34,545.5C 34.6708,544.748 35.5041,544.414 36.5,544.5 Z"/></g>
<g><path style="opacity:0.969" fill="#78a5fd" d="M 118.5,549.5 C 118.5,550.833 118.5,552.167 118.5,553.5C 118.573,555.027 117.906,556.027 116.5,556.5C 108.167,556.5 99.8333,556.5 91.5,556.5C 89.1289,554.003 88.1289,551.003 88.5,547.5C 88.5,547.167 88.5,546.833 88.5,546.5C 89.1667,546.5 89.8333,546.5 90.5,546.5C 98.4515,545.397 106.452,545.23 114.5,546C 116.35,546.69 117.684,547.856 118.5,549.5 Z"/></g>
<g><path style="opacity:0.337" fill="#bcc9e5" d="M 36.5,543.5 C 36.5,543.833 36.5,544.167 36.5,544.5C 35.5041,544.414 34.6708,544.748 34,545.5C 31.9651,549.281 32.1317,552.948 34.5,556.5C 29.503,553.825 28.6696,550.158 32,545.5C 33.1096,543.963 34.6096,543.297 36.5,543.5 Z"/></g>
<g><path style="opacity:0.184" fill="#dbdee3" d="M 63.5,548.5 C 64.8333,549.833 64.8333,551.167 63.5,552.5C 62.1667,551.167 62.1667,549.833 63.5,548.5 Z"/></g>
<g><path style="opacity:0.578" fill="#98abd6" d="M 61.5,547.5 C 62.1667,547.5 62.8333,547.5 63.5,547.5C 63.5,547.833 63.5,548.167 63.5,548.5C 62.1667,549.833 62.1667,551.167 63.5,552.5C 63.573,554.027 62.9063,555.027 61.5,555.5C 61.5,552.833 61.5,550.167 61.5,547.5 Z"/></g>
<g><path style="opacity:0.42" fill="#c1d0f0" d="M 88.5,547.5 C 88.1289,551.003 89.1289,554.003 91.5,556.5C 86.6999,554.597 85.6999,551.597 88.5,547.5 Z"/></g>
<g><path style="opacity:0.451" fill="#cedefd" d="M 118.5,547.5 C 122.114,549.702 122.114,551.702 118.5,553.5C 118.5,552.167 118.5,550.833 118.5,549.5C 118.5,548.833 118.5,548.167 118.5,547.5 Z"/></g>
<g><path style="opacity:0.004" fill="#eaf0fb" d="M 34.5,556.5 C 42.8333,556.5 51.1667,556.5 59.5,556.5C 59.3893,557.117 59.056,557.617 58.5,558C 50.8333,558.667 43.1667,558.667 35.5,558C 34.944,557.617 34.6107,557.117 34.5,556.5 Z"/></g>
<g><path style="opacity:0.004" fill="#ecf2fe" d="M 91.5,556.5 C 99.8333,556.5 108.167,556.5 116.5,556.5C 116.389,557.117 116.056,557.617 115.5,558C 107.833,558.667 100.167,558.667 92.5,558C 91.944,557.617 91.6107,557.117 91.5,556.5 Z"/></g>
<g><path style="opacity:0.968" fill="#77a5fd" d="M 78.5,563.5 C 78.4614,564.756 78.9614,565.756 80,566.5C 80.6667,574.5 80.6667,582.5 80,590.5C 78.6816,593.941 76.1816,595.275 72.5,594.5C 71.4955,593.317 70.6622,591.984 70,590.5C 69.3333,582.5 69.3333,574.5 70,566.5C 72.1962,563.875 75.0295,562.875 78.5,563.5 Z"/></g>
<g><path style="opacity:0.294" fill="#c6d3e3" d="M 78.5,563.5 C 75.0295,562.875 72.1962,563.875 70,566.5C 69.3333,574.5 69.3333,582.5 70,590.5C 70.6622,591.984 71.4955,593.317 72.5,594.5C 70.2475,594.084 68.7475,592.751 68,590.5C 67.3333,582.5 67.3333,574.5 68,566.5C 70.5571,561.489 74.0571,560.489 78.5,563.5 Z"/></g>
<g><path style="opacity:0.455" fill="#b7c8ed" d="M 78.5,563.5 C 80.4109,563.574 81.5776,564.574 82,566.5C 82.6667,574.833 82.6667,583.167 82,591.5C 79.7343,595.463 76.5677,596.463 72.5,594.5C 76.1816,595.275 78.6816,593.941 80,590.5C 80.6667,582.5 80.6667,574.5 80,566.5C 78.9614,565.756 78.4614,564.756 78.5,563.5 Z"/></g>
</svg>
