<?xml version="1.0" encoding="UTF-8"?>
<!DOCTYPE svg PUBLIC "-//W3C//DTD SVG 1.1//EN" "http://www.w3.org/Graphics/SVG/1.1/DTD/svg11.dtd">
<svg xmlns="http://www.w3.org/2000/svg" version="1.1" width="507px" height="575px" style="shape-rendering:geometricPrecision; text-rendering:geometricPrecision; image-rendering:optimizeQuality; fill-rule:evenodd; clip-rule:evenodd" xmlns:xlink="http://www.w3.org/1999/xlink">
<g><path style="opacity:0.204" fill="#d1d2d7" d="M 391.5,23.5 C 309.166,23.3333 226.833,23.5 144.5,24C 143.099,24.4101 141.766,24.9101 140.5,25.5C 140.881,24.0689 141.881,23.2355 143.5,23C 226.334,22.1677 309.001,22.3343 391.5,23.5 Z"/></g>
<g><path style="opacity:0.561" fill="#6896ec" d="M 391.5,23.5 C 393.553,23.4021 395.22,24.0687 396.5,25.5C 312.861,24.3416 229.195,24.1749 145.5,25C 142.911,26.1965 140.244,27.1965 137.5,28C 135.63,30.0396 133.63,31.8729 131.5,33.5C 133.233,29.4351 136.233,26.7684 140.5,25.5C 141.766,24.9101 143.099,24.4101 144.5,24C 226.833,23.5 309.166,23.3333 391.5,23.5 Z"/></g>
<g><path style="opacity:0.998" fill="#2767e7" d="M 396.5,25.5 C 422.418,51.084 448.418,76.7507 474.5,102.5C 475.772,105.348 476.605,108.348 477,111.5C 477.667,223.167 477.667,334.833 477,446.5C 476.001,449.832 474.501,452.832 472.5,455.5C 470.404,458.262 467.738,460.262 464.5,461.5C 453.414,461.443 442.081,461.443 430.5,461.5C 430.315,469.584 430.982,477.584 432.5,485.5C 432.57,500.922 425.236,510.755 410.5,515C 398.738,515.214 387.404,517.048 376.5,520.5C 371.821,520.334 367.155,520.501 362.5,521C 325.212,525.976 287.879,530.476 250.5,534.5C 212.043,538.973 173.709,543.473 135.5,548C 132.149,548.057 129.149,548.891 126.5,550.5C 117.697,551.682 108.864,552.682 100,553.5C 96.2812,553.519 92.7812,552.852 89.5,551.5C 87.847,551.34 86.5137,550.674 85.5,549.5C 79.9184,544.683 76.085,538.683 74,531.5C 73.1102,522.576 71.6102,513.909 69.5,505.5C 68.5975,502.609 68.2641,499.609 68.5,496.5C 68.3885,486.442 67.5552,476.442 66,466.5C 65.4536,461.747 64.287,457.414 62.5,453.5C 62.5,453.167 62.5,452.833 62.5,452.5C 63.1471,451.726 63.4805,450.726 63.5,449.5C 56.74,387.754 49.4067,326.087 41.5,264.5C 40.8089,256.16 39.9756,247.827 39,239.5C 38.6174,238.944 38.1174,238.611 37.5,238.5C 33.6967,207.034 30.03,175.534 26.5,144C 27.1324,135.697 31.4657,130.364 39.5,128C 49.7642,126.081 60.0975,125.415 70.5,126C 71.4162,126.374 72.2496,126.874 73,127.5C 73.4955,129.473 73.6621,131.473 73.5,133.5C 72.6364,134.688 71.6364,135.855 70.5,137C 60.3927,138.029 50.3927,139.529 40.5,141.5C 39.8201,146.12 39.8201,150.787 40.5,155.5C 40.1977,159.79 40.8643,163.79 42.5,167.5C 42.2641,170.609 42.5975,173.609 43.5,176.5C 43.527,182.051 44.1937,187.384 45.5,192.5C 46.8333,203.833 48.1667,215.167 49.5,226.5C 49.4443,231.731 50.111,236.731 51.5,241.5C 58.8387,302.192 66.1721,362.859 73.5,423.5C 73.2796,428.1 73.9462,432.433 75.5,436.5C 77.2072,448.785 78.5405,461.119 79.5,473.5C 79.1561,478.122 79.8227,482.455 81.5,486.5C 83.0003,501.164 84.8337,515.831 87,530.5C 88.6591,534.658 91.4924,537.658 95.5,539.5C 115.959,539.403 136.293,537.403 156.5,533.5C 205.326,527.105 254.326,521.105 303.5,515.5C 316.417,514.697 329.083,513.031 341.5,510.5C 364.711,507.448 388.044,504.281 411.5,501C 415.667,499.5 418.5,496.667 420,492.5C 420.485,486.388 419.985,480.388 418.5,474.5C 418.414,470.143 418.08,465.81 417.5,461.5C 327.167,461.5 236.833,461.5 146.5,461.5C 140.96,460.396 136.293,457.729 132.5,453.5C 131.833,451.5 131.167,449.5 130.5,447.5C 129.505,309.995 129.171,172.662 129.5,35.5C 129.833,34.5 130.5,33.8333 131.5,33.5C 133.63,31.8729 135.63,30.0396 137.5,28C 140.244,27.1965 142.911,26.1965 145.5,25C 229.195,24.1749 312.861,24.3416 396.5,25.5 Z"/></g>
<g><path style="opacity:0.031" fill="#97add9" d="M 396.5,25.5 C 397.922,25.7086 399.255,26.2086 400.5,27C 425.753,51.7509 450.419,76.9176 474.5,102.5C 448.418,76.7507 422.418,51.084 396.5,25.5 Z"/></g>
<g><path style="opacity:1" fill="#fdfefe" d="M 394.5,116.5 C 395.6,117.558 396.934,118.392 398.5,119C 415.5,119.667 432.5,119.667 449.5,119C 450.056,118.617 450.389,118.117 450.5,117.5C 453.398,113.716 453.065,110.216 449.5,107C 433.833,106.667 418.167,106.333 402.5,106C 400.061,105.226 398.227,103.726 397,101.5C 395.857,91.5948 395.357,81.5948 395.5,71.5C 395.833,62.1667 396.167,52.8333 396.5,43.5C 419.188,65.521 441.521,87.8543 463.5,110.5C 464.496,221.126 464.829,331.793 464.5,442.5C 463.78,445.06 462.113,446.893 459.5,448C 354.833,448.667 250.167,448.667 145.5,448C 144.333,446.167 143.167,444.333 142,442.5C 141.004,308.42 141.337,174.42 143,40.5C 143.833,39.6667 144.667,38.8333 145.5,38C 224.499,37.5 303.499,37.3333 382.5,37.5C 382.333,58.5026 382.5,79.5026 383,100.5C 384.69,107.359 388.524,112.693 394.5,116.5 Z"/></g>
<g><path style="opacity:1" fill="#7ba7fe" d="M 183.5,106.5 C 231.168,106.333 278.834,106.5 326.5,107C 330.711,111.233 330.378,115.066 325.5,118.5C 278.837,119.667 232.17,119.833 185.5,119C 180.996,115.473 180.329,111.306 183.5,106.5 Z"/></g>
<g><path style="opacity:1" fill="#6393ed" d="M 463.5,110.5 C 464.117,110.611 464.617,110.944 465,111.5C 465.833,222.001 465.666,332.334 464.5,442.5C 464.829,331.793 464.496,221.126 463.5,110.5 Z"/></g>
<g><path style="opacity:1" fill="#8aacf2" d="M 394.5,116.5 C 413.09,118.776 431.756,119.109 450.5,117.5C 450.389,118.117 450.056,118.617 449.5,119C 432.5,119.667 415.5,119.667 398.5,119C 396.934,118.392 395.6,117.558 394.5,116.5 Z"/></g>
<g><path style="opacity:0.239" fill="#adc0ea" d="M 120.5,125.5 C 119.833,125.833 119.167,126.167 118.5,126.5C 118.262,123.852 116.928,122.018 114.5,121C 104.454,120.505 94.4541,121.005 84.5,122.5C 85.2625,121.732 86.2625,121.232 87.5,121C 95.1669,120.167 102.834,119.333 110.5,118.5C 115.621,118.386 118.954,120.719 120.5,125.5 Z"/></g>
<g><path style="opacity:0.994" fill="#2968e7" d="M 118.5,126.5 C 117.645,131.511 114.645,133.678 109.5,133C 101.175,134.144 92.8415,134.81 84.5,135C 83.1772,134.184 82.5106,133.017 82.5,131.5C 82.2104,128.215 82.877,125.215 84.5,122.5C 94.4541,121.005 104.454,120.505 114.5,121C 116.928,122.018 118.262,123.852 118.5,126.5 Z"/></g>
<g><path style="opacity:0.999" fill="#fbfcfe" d="M 120.5,125.5 C 122.607,126.468 124.941,126.802 127.5,126.5C 127.5,132.833 127.5,139.167 127.5,145.5C 105.503,147.815 83.5033,150.315 61.5,153C 57.0996,155.57 55.0996,159.404 55.5,164.5C 70.3249,281.099 84.8249,397.766 99,514.5C 103.984,524.075 111.817,527.908 122.5,526C 213.389,513.931 304.389,502.597 395.5,492C 400.356,490.324 403.856,487.157 406,482.5C 407.377,475.924 407.877,469.257 407.5,462.5C 410.5,462.5 413.5,462.5 416.5,462.5C 416.344,466.764 417.011,470.764 418.5,474.5C 419.985,480.388 420.485,486.388 420,492.5C 418.5,496.667 415.667,499.5 411.5,501C 388.044,504.281 364.711,507.448 341.5,510.5C 328.59,511.402 315.923,513.069 303.5,515.5C 254.326,521.105 205.326,527.105 156.5,533.5C 136.186,535.688 115.853,537.688 95.5,539.5C 91.4924,537.658 88.6591,534.658 87,530.5C 84.8337,515.831 83.0003,501.164 81.5,486.5C 81.7204,481.9 81.0538,477.567 79.5,473.5C 78.5405,461.119 77.2072,448.785 75.5,436.5C 75.7204,431.9 75.0538,427.567 73.5,423.5C 66.1721,362.859 58.8387,302.192 51.5,241.5C 51.5557,236.269 50.889,231.269 49.5,226.5C 48.1667,215.167 46.8333,203.833 45.5,192.5C 45.624,186.931 44.9573,181.598 43.5,176.5C 42.5975,173.609 42.2641,170.609 42.5,167.5C 42.8023,163.21 42.1357,159.21 40.5,155.5C 39.8201,150.787 39.8201,146.12 40.5,141.5C 50.3927,139.529 60.3927,138.029 70.5,137C 71.6364,135.855 72.6364,134.688 73.5,133.5C 74.4511,132.081 74.7845,130.415 74.5,128.5C 76.8311,129.995 78.8311,129.662 80.5,127.5C 80.1568,129.483 80.8235,130.817 82.5,131.5C 82.5106,133.017 83.1772,134.184 84.5,135C 92.8415,134.81 101.175,134.144 109.5,133C 114.645,133.678 117.645,131.511 118.5,126.5C 119.167,126.167 119.833,125.833 120.5,125.5 Z"/></g>
<g><path style="opacity:0.741" fill="#85a2e8" d="M 84.5,122.5 C 82.877,125.215 82.2104,128.215 82.5,131.5C 80.8235,130.817 80.1568,129.483 80.5,127.5C 80.6696,124.796 82.0029,123.129 84.5,122.5 Z"/></g>
<g><path style="opacity:0.359" fill="#b0bddb" d="M 74.5,128.5 C 74.7845,130.415 74.4511,132.081 73.5,133.5C 73.6621,131.473 73.4955,129.473 73,127.5C 72.2496,126.874 71.4162,126.374 70.5,126C 60.0975,125.415 49.7642,126.081 39.5,128C 31.4657,130.364 27.1324,135.697 26.5,144C 30.03,175.534 33.6967,207.034 37.5,238.5C 38.0315,242.693 38.0315,246.693 37.5,250.5C 32.3623,214.055 28.1956,177.388 25,140.5C 27.3858,132.114 32.8858,127.28 41.5,126C 49.3257,125.093 57.1591,124.26 65,123.5C 69.6289,122.727 72.7956,124.394 74.5,128.5 Z"/></g>
<g><path style="opacity:1" fill="#e8f0fd" d="M 127.5,145.5 C 127.333,246.501 127.5,347.501 128,448.5C 128.656,450.986 130.156,452.653 132.5,453.5C 136.293,457.729 140.96,460.396 146.5,461.5C 233.332,462.499 320.332,462.833 407.5,462.5C 407.877,469.257 407.377,475.924 406,482.5C 403.856,487.157 400.356,490.324 395.5,492C 304.389,502.597 213.389,513.931 122.5,526C 111.817,527.908 103.984,524.075 99,514.5C 84.8249,397.766 70.3249,281.099 55.5,164.5C 55.0996,159.404 57.0996,155.57 61.5,153C 83.5033,150.315 105.503,147.815 127.5,145.5 Z"/></g>
<g><path style="opacity:1" fill="#d7e3fa" d="M 129.5,36.5 C 128.338,172.806 128.172,309.139 129,445.5C 129.278,446.416 129.778,447.082 130.5,447.5C 131.167,449.5 131.833,451.5 132.5,453.5C 130.156,452.653 128.656,450.986 128,448.5C 127.5,347.501 127.333,246.501 127.5,145.5C 127.5,139.167 127.5,132.833 127.5,126.5C 124.941,126.802 122.607,126.468 120.5,125.5C 122.5,125.5 124.5,125.5 126.5,125.5C 126.333,97.498 126.5,69.498 127,41.5C 127.374,39.5087 128.207,37.842 129.5,36.5 Z"/></g>
<g><path style="opacity:1" fill="#5287ec" d="M 129.5,35.5 C 129.171,172.662 129.505,309.995 130.5,447.5C 129.778,447.082 129.278,446.416 129,445.5C 128.172,309.139 128.338,172.806 129.5,36.5C 129.5,36.1667 129.5,35.8333 129.5,35.5 Z"/></g>
<g><path style="opacity:1" fill="#8dadf2" d="M 40.5,155.5 C 42.1357,159.21 42.8023,163.21 42.5,167.5C 40.8643,163.79 40.1977,159.79 40.5,155.5 Z"/></g>
<g><path style="opacity:1" fill="#79a6fe" d="M 184.5,168.5 C 260.834,168.333 337.167,168.5 413.5,169C 417.292,171.053 418.458,174.219 417,178.5C 416.167,179.333 415.333,180.167 414.5,181C 337.498,181.833 260.498,181.667 183.5,180.5C 180.64,176.2 180.973,172.2 184.5,168.5 Z"/></g>
<g><path style="opacity:1" fill="#9ab7f3" d="M 43.5,176.5 C 44.9573,181.598 45.624,186.931 45.5,192.5C 44.1937,187.384 43.527,182.051 43.5,176.5 Z"/></g>
<g><path style="opacity:1" fill="#87a8f1" d="M 49.5,226.5 C 50.889,231.269 51.5557,236.269 51.5,241.5C 50.111,236.731 49.4443,231.731 49.5,226.5 Z"/></g>
<g><path style="opacity:1" fill="#76a5fe" d="M 413.5,248.5 C 336.792,248.827 260.126,248.494 183.5,247.5C 180.602,243.716 180.935,240.216 184.5,237C 261.167,236.333 337.833,236.333 414.5,237C 419.937,241.399 419.604,245.233 413.5,248.5 Z"/></g>
<g><path style="opacity:0.251" fill="#82a1db" d="M 474.5,102.5 C 476.136,103.749 477.303,105.416 478,107.5C 478.667,221.5 478.667,335.5 478,449.5C 477.008,452.323 475.175,454.323 472.5,455.5C 474.501,452.832 476.001,449.832 477,446.5C 477.667,334.833 477.667,223.167 477,111.5C 476.605,108.348 475.772,105.348 474.5,102.5 Z"/></g>
<g><path style="opacity:1" fill="#98bbfe" d="M 183.5,247.5 C 260.126,248.494 336.792,248.827 413.5,248.5C 337.334,249.666 261.001,249.832 184.5,249C 183.944,248.617 183.611,248.117 183.5,247.5 Z"/></g>
<g><path style="opacity:0.586" fill="#638dea" d="M 37.5,238.5 C 38.1174,238.611 38.6174,238.944 39,239.5C 39.9756,247.827 40.8089,256.16 41.5,264.5C 40.8333,263.5 40.1667,262.5 39.5,261.5C 39.5,260.833 39.5,260.167 39.5,259.5C 40.0356,256.302 39.369,253.635 37.5,251.5C 37.5,251.167 37.5,250.833 37.5,250.5C 38.0315,246.693 38.0315,242.693 37.5,238.5 Z"/></g>
<g><path style="opacity:0.173" fill="#ebeff6" d="M 37.5,251.5 C 39.369,253.635 40.0356,256.302 39.5,259.5C 38.7451,256.947 38.0784,254.28 37.5,251.5 Z"/></g>
<g><path style="opacity:1" fill="#b5cefe" d="M 413.5,304.5 C 336.792,304.173 260.126,304.506 183.5,305.5C 183.611,304.883 183.944,304.383 184.5,304C 261.001,303.168 337.334,303.334 413.5,304.5 Z"/></g>
<g><path style="opacity:1" fill="#76a4fe" d="M 413.5,304.5 C 419.785,307.769 420.118,311.602 414.5,316C 337.498,316.833 260.498,316.667 183.5,315.5C 180.855,312.091 180.855,308.757 183.5,305.5C 260.126,304.506 336.792,304.173 413.5,304.5 Z"/></g>
<g><path style="opacity:1" fill="#9ebffe" d="M 324.5,372.5 C 277.458,372.177 230.458,372.51 183.5,373.5C 183.611,372.883 183.944,372.383 184.5,372C 231.335,371.168 278.002,371.335 324.5,372.5 Z"/></g>
<g><path style="opacity:1" fill="#75a4fe" d="M 324.5,372.5 C 328.848,373.887 330.348,376.887 329,381.5C 328.097,382.701 326.931,383.535 325.5,384C 278.5,384.667 231.5,384.667 184.5,384C 180.995,380.666 180.661,377.166 183.5,373.5C 230.458,372.51 277.458,372.177 324.5,372.5 Z"/></g>
<g><path style="opacity:0.357" fill="#a9bbe4" d="M 39.5,261.5 C 40.1667,262.5 40.8333,263.5 41.5,264.5C 49.4067,326.087 56.74,387.754 63.5,449.5C 63.4805,450.726 63.1471,451.726 62.5,452.5C 54.4407,389.02 46.774,325.354 39.5,261.5 Z"/></g>
<g><path style="opacity:1" fill="#8eaef2" d="M 73.5,423.5 C 75.0538,427.567 75.7204,431.9 75.5,436.5C 73.9462,432.433 73.2796,428.1 73.5,423.5 Z"/></g>
<g><path style="opacity:1" fill="#bfd3f8" d="M 146.5,461.5 C 236.833,461.5 327.167,461.5 417.5,461.5C 418.08,465.81 418.414,470.143 418.5,474.5C 417.011,470.764 416.344,466.764 416.5,462.5C 413.5,462.5 410.5,462.5 407.5,462.5C 320.332,462.833 233.332,462.499 146.5,461.5 Z"/></g>
<g><path style="opacity:0.224" fill="#abb8d7" d="M 464.5,461.5 C 464.082,462.222 463.416,462.722 462.5,463C 452.167,463.333 441.833,463.667 431.5,464C 433.803,474.196 434.47,484.363 433.5,494.5C 433.81,491.287 433.477,488.287 432.5,485.5C 430.982,477.584 430.315,469.584 430.5,461.5C 442.081,461.443 453.414,461.443 464.5,461.5 Z"/></g>
<g><path style="opacity:0.212" fill="#b9c2d9" d="M 62.5,453.5 C 64.287,457.414 65.4536,461.747 66,466.5C 67.5552,476.442 68.3885,486.442 68.5,496.5C 67.7784,496.082 67.2784,495.416 67,494.5C 65.4167,480.834 63.9167,467.168 62.5,453.5 Z"/></g>
<g><path style="opacity:1" fill="#769cef" d="M 79.5,473.5 C 81.0538,477.567 81.7204,481.9 81.5,486.5C 79.8227,482.455 79.1561,478.122 79.5,473.5 Z"/></g>
<g><path style="opacity:1" fill="#799ff0" d="M 341.5,510.5 C 329.083,513.031 316.417,514.697 303.5,515.5C 315.923,513.069 328.59,511.402 341.5,510.5 Z"/></g>
<g><path style="opacity:0.373" fill="#9eb4eb" d="M 432.5,485.5 C 433.477,488.287 433.81,491.287 433.5,494.5C 431.491,504.344 425.824,511.178 416.5,515C 403.283,517.652 389.95,519.486 376.5,520.5C 387.404,517.048 398.738,515.214 410.5,515C 425.236,510.755 432.57,500.922 432.5,485.5 Z"/></g>
<g><path style="opacity:0.224" fill="#b7c1d9" d="M 376.5,520.5 C 376.082,521.222 375.416,521.722 374.5,522C 333.178,526.999 291.844,531.832 250.5,536.5C 250.5,535.833 250.5,535.167 250.5,534.5C 287.879,530.476 325.212,525.976 362.5,521C 367.155,520.501 371.821,520.334 376.5,520.5 Z"/></g>
<g><path style="opacity:0.494" fill="#a0b7e8" d="M 69.5,505.5 C 71.6102,513.909 73.1102,522.576 74,531.5C 76.085,538.683 79.9184,544.683 85.5,549.5C 80.1266,546.621 76.2933,542.288 74,536.5C 71.7353,526.287 70.2353,515.953 69.5,505.5 Z"/></g>
<g><path style="opacity:1" fill="#6590ed" d="M 156.5,533.5 C 136.293,537.403 115.959,539.403 95.5,539.5C 115.853,537.688 136.186,535.688 156.5,533.5 Z"/></g>
<g><path style="opacity:0.388" fill="#a3b7e9" d="M 250.5,534.5 C 250.5,535.167 250.5,535.833 250.5,536.5C 213.222,541.272 175.889,545.605 138.5,549.5C 134.466,549.505 130.466,549.838 126.5,550.5C 129.149,548.891 132.149,548.057 135.5,548C 173.709,543.473 212.043,538.973 250.5,534.5 Z"/></g>
<g><path style="opacity:0.19" fill="#d2dbe7" d="M 138.5,549.5 C 123.548,553.449 108.215,554.949 92.5,554C 91.0577,553.623 90.0577,552.79 89.5,551.5C 92.7812,552.852 96.2812,553.519 100,553.5C 108.864,552.682 117.697,551.682 126.5,550.5C 130.466,549.838 134.466,549.505 138.5,549.5 Z"/></g>
</svg>
