<?xml version="1.0" encoding="UTF-8"?>
<!DOCTYPE svg PUBLIC "-//W3C//DTD SVG 1.1//EN" "http://www.w3.org/Graphics/SVG/1.1/DTD/svg11.dtd">
<svg xmlns="http://www.w3.org/2000/svg" version="1.1" width="417px" height="419px" style="shape-rendering:geometricPrecision; text-rendering:geometricPrecision; image-rendering:optimizeQuality; fill-rule:evenodd; clip-rule:evenodd" xmlns:xlink="http://www.w3.org/1999/xlink">
<g><path style="opacity:0.561" fill="#30646b" d="M 251.5,25.5 C 224.668,21.5832 197.835,21.5832 171,25.5C 170.235,25.4301 169.735,25.0967 169.5,24.5C 183.035,21.6226 196.868,20.2893 211,20.5C 219.531,20.516 228.031,21.016 236.5,22C 241.781,22.5384 246.781,23.705 251.5,25.5 Z"/></g>
<g><path style="opacity:0.998" fill="#053943" d="M 251.5,25.5 C 260.569,27.192 269.236,29.8586 277.5,33.5C 286.795,38.1473 296.128,42.8139 305.5,47.5C 315.107,53.7714 324.44,60.4381 333.5,67.5C 336.767,69.4273 339.767,71.7606 342.5,74.5C 348.147,81.3147 353.98,87.9814 360,94.5C 365.275,101.388 369.775,108.721 373.5,116.5C 378.462,126.753 383.128,137.086 387.5,147.5C 391.953,157.562 394.62,168.229 395.5,179.5C 398.14,200.168 398.14,220.835 395.5,241.5C 394.082,254.26 390.915,266.593 386,278.5C 382.387,287.336 378.387,296.003 374,304.5C 372.383,306.763 370.55,308.763 368.5,310.5C 364.878,313.709 362.211,317.709 360.5,322.5C 362.082,327.337 364.415,331.67 367.5,335.5C 377.342,354.52 386.676,373.853 395.5,393.5C 395.5,394.833 395.5,396.167 395.5,397.5C 326.826,397.777 258.16,397.444 189.5,396.5C 177.098,394.595 164.765,391.929 152.5,388.5C 140.653,385.414 129.319,380.914 118.5,375C 111.334,370.249 104,365.749 96.5,361.5C 93.1335,358.16 89.8001,354.827 86.5,351.5C 80.4249,344.758 74.0915,338.425 67.5,332.5C 63.3141,326.129 58.6475,320.129 53.5,314.5C 43.5759,297.984 35.2426,280.65 28.5,262.5C 26.098,257.899 24.7647,252.899 24.5,247.5C 21.0014,223.875 20.6681,200.209 23.5,176.5C 25.3648,162.916 29.0315,149.916 34.5,137.5C 42.1181,123.692 50.1181,110.026 58.5,96.5C 60.016,93.4669 62.016,90.8003 64.5,88.5C 74.8435,77.8569 86.1768,67.5235 98.5,57.5C 112.318,48.3591 126.652,40.3591 141.5,33.5C 150.361,29.3252 159.694,26.3252 169.5,24.5C 169.735,25.0967 170.235,25.4301 171,25.5C 197.835,21.5832 224.668,21.5832 251.5,25.5 Z"/></g>
<g><path style="opacity:1" fill="#23cfed" d="M 203.5,37.5 C 262.738,37.5375 310.905,60.5375 348,106.5C 351.825,110.494 351.325,113.661 346.5,116C 294.148,135.043 251.982,167.21 220,212.5C 187.789,261.315 173.289,315.315 176.5,374.5C 169.693,374.172 163.026,373.005 156.5,371C 89.4469,344.92 50.9469,296.087 41,224.5C 38.0641,146.162 71.2308,88.9949 140.5,53C 160.819,44.8266 181.819,39.6599 203.5,37.5 Z"/></g>
<g><path style="opacity:0.149" fill="#38888d" d="M 277.5,33.5 C 287.698,36.599 297.031,41.2657 305.5,47.5C 296.128,42.8139 286.795,38.1473 277.5,33.5 Z"/></g>
<g><path style="opacity:0.047" fill="#378187" d="M 305.5,47.5 C 316.231,52.2339 325.564,58.9005 333.5,67.5C 324.44,60.4381 315.107,53.7714 305.5,47.5 Z"/></g>
<g><path style="opacity:0.2" fill="#358289" d="M 141.5,33.5 C 126.652,40.3591 112.318,48.3591 98.5,57.5C 86.1768,67.5235 74.8435,77.8569 64.5,88.5C 85.0499,63.0535 110.717,44.7201 141.5,33.5 Z"/></g>
<g><path style="opacity:1" fill="#edf4f3" d="M 244.5,93.5 C 258.026,92.8459 267.192,98.8459 272,111.5C 273.48,125.704 267.314,134.871 253.5,139C 236.058,140.56 227.058,132.56 226.5,115C 228.055,103.957 234.055,96.7907 244.5,93.5 Z"/></g>
<g><path style="opacity:1" fill="#252928" d="M 243.5,101.5 C 245.5,101.5 247.5,101.5 249.5,101.5C 246.506,108.967 248.672,113.967 256,116.5C 258.996,116.086 261.496,114.752 263.5,112.5C 266.248,119.275 264.581,125.108 258.5,130C 244.753,135.285 236.42,130.618 233.5,116C 233.949,109.07 237.282,104.237 243.5,101.5 Z"/></g>
<g><path style="opacity:0.157" fill="#358287" d="M 58.5,96.5 C 50.1181,110.026 42.1181,123.692 34.5,137.5C 40.0507,122.31 48.0507,108.643 58.5,96.5 Z"/></g>
<g><path style="opacity:1" fill="#f7920a" d="M 344.5,127.5 C 347.652,126.959 350.152,127.959 352,130.5C 369.031,172.306 363.698,210.973 336,246.5C 329.486,253.495 322.319,259.661 314.5,265C 313.552,265.483 312.552,265.649 311.5,265.5C 313.598,257.185 315.765,248.852 318,240.5C 318.667,232.833 318.667,225.167 318,217.5C 300.002,218.093 283.502,213.26 268.5,203C 263.406,198.579 259.073,193.579 255.5,188C 258.066,183.427 261.399,179.427 265.5,176C 289.053,155.227 315.386,139.061 344.5,127.5 Z"/></g>
<g><path style="opacity:0.149" fill="#3d8085" d="M 373.5,116.5 C 380.029,125.899 384.696,136.232 387.5,147.5C 383.128,137.086 378.462,126.753 373.5,116.5 Z"/></g>
<g><path style="opacity:0.215" fill="#447f85" d="M 23.5,176.5 C 20.6681,200.209 21.0014,223.875 24.5,247.5C 23.3681,244.372 22.5348,241.038 22,237.5C 20.5816,221.522 20.2483,205.522 21,189.5C 21.2715,184.924 22.1049,180.591 23.5,176.5 Z"/></g>
<g><path style="opacity:1" fill="#f5e459" d="M 245.5,197.5 C 250.587,201.756 255.253,206.59 259.5,212C 272.732,222.3 287.732,227.633 304.5,228C 305.517,229.049 305.684,230.216 305,231.5C 280.443,255.285 252.277,260.452 220.5,247C 214.867,244.295 214.033,240.462 218,235.5C 225.952,221.92 235.118,209.253 245.5,197.5 Z"/></g>
<g><path style="opacity:0.187" fill="#467d82" d="M 395.5,179.5 C 397.117,183.54 397.95,187.873 398,192.5C 398.667,205.167 398.667,217.833 398,230.5C 397.892,234.465 397.059,238.132 395.5,241.5C 398.14,220.835 398.14,200.168 395.5,179.5 Z"/></g>
<g><path style="opacity:1" fill="#09cbb8" d="M 206.5,262.5 C 208.857,262.337 211.19,262.503 213.5,263C 254.552,278.478 286.719,304.978 310,342.5C 310.667,344.5 310.667,346.5 310,348.5C 274.421,373.271 234.921,383.438 191.5,379C 187.032,372.994 185.365,366.16 186.5,358.5C 186.705,327.543 191.872,297.543 202,268.5C 203.752,266.649 205.252,264.649 206.5,262.5 Z"/></g>
<g><path style="opacity:0.227" fill="#31858b" d="M 28.5,262.5 C 35.2426,280.65 43.5759,297.984 53.5,314.5C 51.9013,312.396 50.068,310.396 48,308.5C 39.2465,294.058 32.7465,278.725 28.5,262.5 Z"/></g>
<g><path style="opacity:0.031" fill="#3e8487" d="M 368.5,310.5 C 366.695,314.773 364.361,318.773 361.5,322.5C 363.785,326.735 365.785,331.069 367.5,335.5C 364.415,331.67 362.082,327.337 360.5,322.5C 362.211,317.709 364.878,313.709 368.5,310.5 Z"/></g>
<g><path style="opacity:0.031" fill="#378589" d="M 53.5,314.5 C 58.6475,320.129 63.3141,326.129 67.5,332.5C 61.6939,327.364 57.0272,321.364 53.5,314.5 Z"/></g>
<g><path style="opacity:0.027" fill="#377e82" d="M 67.5,332.5 C 74.0915,338.425 80.4249,344.758 86.5,351.5C 79.1878,346.188 72.8545,339.854 67.5,332.5 Z"/></g>
<g><path style="opacity:0.149" fill="#38838b" d="M 152.5,388.5 C 164.765,391.929 177.098,394.595 189.5,396.5C 176.563,396.114 164.229,393.448 152.5,388.5 Z"/></g>
<g><path style="opacity:0.106" fill="#5c8585" d="M 395.5,393.5 C 397.088,394.635 397.421,395.969 396.5,397.5C 329.836,398.667 263.169,398.833 196.5,398C 193.964,397.814 191.631,397.314 189.5,396.5C 258.16,397.444 326.826,397.777 395.5,397.5C 395.5,396.167 395.5,394.833 395.5,393.5 Z"/></g>
</svg>
